# MagicaVoxel @ Ephtracy

# group
o 

# material
mtllib cloud_stone_2.mtl
usemtl palette

# normals
vn -1 0 0
vn 1 0 0
vn 0 0 1
vn 0 0 -1
vn 0 -1 0
vn 0 1 0

# texcoords
vt 0.958984 0.5
vt 0.962891 0.5
vt 0.966797 0.5

# verts
v -0.8 0 4
v -0.8 0 2.4
v -0.8 0.1 4
v -0.8 0.1 3.8
v -0.8 0.1 3.7
v -0.8 0.1 3.6
v -0.8 0.1 3.1
v -0.8 0.1 3
v -0.8 0.1 2.9
v -0.8 0.1 2.4
v -0.8 0.3 4
v -0.8 0.3 3.8
v -0.8 0.3 3.7
v -0.8 0.3 3.6
v -0.8 0.3 3.1
v -0.8 0.3 3
v -0.8 0.3 2.9
v -0.8 0.3 2.4
v -0.8 0.4 4
v -0.8 0.4 3.7
v -0.8 0.4 3.6
v -0.8 0.4 3.5
v -0.8 0.4 3.3
v -0.8 0.4 3.2
v -0.8 0.4 3.1
v -0.8 0.4 2.7
v -0.8 0.4 2.6
v -0.8 0.4 2.5
v -0.8 0.4 2.4
v -0.8 0.6 4
v -0.8 0.6 3.7
v -0.8 0.6 3.6
v -0.8 0.6 3.5
v -0.8 0.6 3.3
v -0.8 0.6 3.2
v -0.8 0.6 3.1
v -0.8 0.6 2.7
v -0.8 0.6 2.6
v -0.8 0.6 2.5
v -0.8 0.6 2.4
v -0.8 0.7 4
v -0.8 0.7 3.8
v -0.8 0.7 3.7
v -0.8 0.7 3.6
v -0.8 0.7 3.1
v -0.8 0.7 3
v -0.8 0.7 2.9
v -0.8 0.7 2.4
v -0.8 0.9 4
v -0.8 0.9 3.8
v -0.8 0.9 3.7
v -0.8 0.9 3.6
v -0.8 0.9 3.1
v -0.8 0.9 3
v -0.8 0.9 2.9
v -0.8 0.9 2.4
v -0.8 1 4
v -0.8 1 3.7
v -0.8 1 3.6
v -0.8 1 3.5
v -0.8 1 3.3
v -0.8 1 3.2
v -0.8 1 3.1
v -0.8 1 2.7
v -0.8 1 2.6
v -0.8 1 2.5
v -0.8 1 2.4
v -0.8 1.2 4
v -0.8 1.2 3.7
v -0.8 1.2 3.6
v -0.8 1.2 3.5
v -0.8 1.2 3.3
v -0.8 1.2 3.2
v -0.8 1.2 3.1
v -0.8 1.2 2.7
v -0.8 1.2 2.6
v -0.8 1.2 2.5
v -0.8 1.2 2.4
v -0.8 1.3 4
v -0.8 1.3 3.8
v -0.8 1.3 3.7
v -0.8 1.3 3.6
v -0.8 1.3 3.1
v -0.8 1.3 3
v -0.8 1.3 2.9
v -0.8 1.3 2.4
v -0.8 1.5 4
v -0.8 1.5 3.8
v -0.8 1.5 3.7
v -0.8 1.5 3.6
v -0.8 1.5 3.1
v -0.8 1.5 3
v -0.8 1.5 2.9
v -0.8 1.5 2.4
v -0.8 1.6 4
v -0.8 1.6 2.4
v 0.8 0 4
v 0.8 0 2.4
v 0.8 0.1 4
v 0.8 0.1 3.5
v 0.8 0.1 3.4
v 0.8 0.1 3.3
v 0.8 0.1 2.8
v 0.8 0.1 2.7
v 0.8 0.1 2.6
v 0.8 0.1 2.4
v 0.8 0.3 4
v 0.8 0.3 3.5
v 0.8 0.3 3.4
v 0.8 0.3 3.3
v 0.8 0.3 2.8
v 0.8 0.3 2.7
v 0.8 0.3 2.6
v 0.8 0.3 2.4
v 0.8 0.4 4
v 0.8 0.4 3.9
v 0.8 0.4 3.8
v 0.8 0.4 3.7
v 0.8 0.4 3.3
v 0.8 0.4 3.2
v 0.8 0.4 3.1
v 0.8 0.4 2.9
v 0.8 0.4 2.8
v 0.8 0.4 2.7
v 0.8 0.4 2.4
v 0.8 0.6 4
v 0.8 0.6 3.9
v 0.8 0.6 3.8
v 0.8 0.6 3.7
v 0.8 0.6 3.3
v 0.8 0.6 3.2
v 0.8 0.6 3.1
v 0.8 0.6 2.9
v 0.8 0.6 2.8
v 0.8 0.6 2.7
v 0.8 0.6 2.4
v 0.8 0.7 4
v 0.8 0.7 3.5
v 0.8 0.7 3.4
v 0.8 0.7 3.3
v 0.8 0.7 2.8
v 0.8 0.7 2.7
v 0.8 0.7 2.6
v 0.8 0.7 2.4
v 0.8 0.9 4
v 0.8 0.9 3.5
v 0.8 0.9 3.4
v 0.8 0.9 3.3
v 0.8 0.9 2.8
v 0.8 0.9 2.7
v 0.8 0.9 2.6
v 0.8 0.9 2.4
v 0.8 1 4
v 0.8 1 3.9
v 0.8 1 3.8
v 0.8 1 3.7
v 0.8 1 3.3
v 0.8 1 3.2
v 0.8 1 2.9
v 0.8 1 2.8
v 0.8 1 2.7
v 0.8 1 2.4
v 0.8 1.2 4
v 0.8 1.2 3.9
v 0.8 1.2 3.8
v 0.8 1.2 3.7
v 0.8 1.2 3.3
v 0.8 1.2 3.2
v 0.8 1.2 2.9
v 0.8 1.2 2.8
v 0.8 1.2 2.7
v 0.8 1.2 2.4
v 0.8 1.3 4
v 0.8 1.3 3.5
v 0.8 1.3 3.4
v 0.8 1.3 3.3
v 0.8 1.3 2.8
v 0.8 1.3 2.7
v 0.8 1.3 2.6
v 0.8 1.3 2.4
v 0.8 1.5 4
v 0.8 1.5 3.5
v 0.8 1.5 3.4
v 0.8 1.5 3.3
v 0.8 1.5 2.8
v 0.8 1.5 2.7
v 0.8 1.5 2.6
v 0.8 1.5 2.4
v 0.8 1.6 4
v 0.8 1.6 2.4
v -0.8 0 4
v -0.8 0.1 4
v -0.8 0.3 4
v -0.8 0.4 4
v -0.8 0.6 4
v -0.8 0.7 4
v -0.8 0.9 4
v -0.8 1 4
v -0.8 1.2 4
v -0.8 1.3 4
v -0.8 1.5 4
v -0.8 1.6 4
v -0.7 0.4 4
v -0.7 0.6 4
v -0.7 1 4
v -0.7 1.2 4
v -0.6 0.4 4
v -0.6 0.6 4
v -0.6 1 4
v -0.6 1.2 4
v -0.5 0.4 4
v -0.5 0.6 4
v -0.5 1 4
v -0.5 1.2 4
v -0.3 0.1 4
v -0.3 0.3 4
v -0.3 0.7 4
v -0.3 0.9 4
v -0.3 1.3 4
v -0.3 1.5 4
v -0.2 0.1 4
v -0.2 0.3 4
v -0.2 0.7 4
v -0.2 0.9 4
v -0.2 1.3 4
v -0.2 1.5 4
v -0.1 0.1 4
v -0.1 0.3 4
v -0.1 0.4 4
v -0.1 0.6 4
v -0.1 0.7 4
v -0.1 0.9 4
v -0.1 1 4
v -0.1 1.2 4
v -0.1 1.3 4
v -0.1 1.5 4
v 0 0.4 4
v 0 0.6 4
v 0 1 4
v 0 1.2 4
v 0.1 0.4 4
v 0.1 0.6 4
v 0.1 1 4
v 0.1 1.2 4
v 0.3 0.4 4
v 0.3 0.6 4
v 0.3 1 4
v 0.3 1.2 4
v 0.4 0.1 4
v 0.4 0.3 4
v 0.4 0.4 4
v 0.4 0.6 4
v 0.4 0.7 4
v 0.4 0.9 4
v 0.4 1 4
v 0.4 1.2 4
v 0.4 1.3 4
v 0.4 1.5 4
v 0.5 0.1 4
v 0.5 0.3 4
v 0.5 0.4 4
v 0.5 0.6 4
v 0.5 0.7 4
v 0.5 0.9 4
v 0.5 1 4
v 0.5 1.2 4
v 0.5 1.3 4
v 0.5 1.5 4
v 0.6 0.1 4
v 0.6 0.3 4
v 0.6 0.7 4
v 0.6 0.9 4
v 0.6 1.3 4
v 0.6 1.5 4
v 0.8 0 4
v 0.8 0.1 4
v 0.8 0.3 4
v 0.8 0.4 4
v 0.8 0.6 4
v 0.8 0.7 4
v 0.8 0.9 4
v 0.8 1 4
v 0.8 1.2 4
v 0.8 1.3 4
v 0.8 1.5 4
v 0.8 1.6 4
v -0.8 0 2.4
v -0.8 0.1 2.4
v -0.8 0.3 2.4
v -0.8 0.4 2.4
v -0.8 0.6 2.4
v -0.8 0.7 2.4
v -0.8 0.9 2.4
v -0.8 1 2.4
v -0.8 1.2 2.4
v -0.8 1.3 2.4
v -0.8 1.5 2.4
v -0.8 1.6 2.4
v -0.6 0.1 2.4
v -0.6 0.3 2.4
v -0.6 0.7 2.4
v -0.6 0.9 2.4
v -0.6 1.3 2.4
v -0.6 1.5 2.4
v -0.5 0.1 2.4
v -0.5 0.3 2.4
v -0.5 0.4 2.4
v -0.5 0.6 2.4
v -0.5 0.7 2.4
v -0.5 0.9 2.4
v -0.5 1 2.4
v -0.5 1.2 2.4
v -0.5 1.3 2.4
v -0.5 1.5 2.4
v -0.4 0.1 2.4
v -0.4 0.3 2.4
v -0.4 0.4 2.4
v -0.4 0.6 2.4
v -0.4 0.7 2.4
v -0.4 0.9 2.4
v -0.4 1 2.4
v -0.4 1.2 2.4
v -0.4 1.3 2.4
v -0.4 1.5 2.4
v -0.3 0.4 2.4
v -0.3 0.6 2.4
v -0.3 1 2.4
v -0.3 1.2 2.4
v -0.1 0.4 2.4
v -0.1 0.6 2.4
v -0.1 1 2.4
v -0.1 1.2 2.4
v 0 0.4 2.4
v 0 0.6 2.4
v 0 1 2.4
v 0 1.2 2.4
v 0.1 0.1 2.4
v 0.1 0.3 2.4
v 0.1 0.4 2.4
v 0.1 0.6 2.4
v 0.1 0.7 2.4
v 0.1 0.9 2.4
v 0.1 1 2.4
v 0.1 1.2 2.4
v 0.1 1.3 2.4
v 0.1 1.5 2.4
v 0.2 0.1 2.4
v 0.2 0.3 2.4
v 0.2 0.7 2.4
v 0.2 0.9 2.4
v 0.2 1.3 2.4
v 0.2 1.5 2.4
v 0.3 0.1 2.4
v 0.3 0.3 2.4
v 0.3 0.7 2.4
v 0.3 0.9 2.4
v 0.3 1.3 2.4
v 0.3 1.5 2.4
v 0.5 0.4 2.4
v 0.5 0.6 2.4
v 0.5 1 2.4
v 0.5 1.2 2.4
v 0.6 0.4 2.4
v 0.6 0.6 2.4
v 0.6 1 2.4
v 0.6 1.2 2.4
v 0.7 0.4 2.4
v 0.7 0.6 2.4
v 0.7 1 2.4
v 0.7 1.2 2.4
v 0.8 0 2.4
v 0.8 0.1 2.4
v 0.8 0.3 2.4
v 0.8 0.4 2.4
v 0.8 0.6 2.4
v 0.8 0.7 2.4
v 0.8 0.9 2.4
v 0.8 1 2.4
v 0.8 1.2 2.4
v 0.8 1.3 2.4
v 0.8 1.5 2.4
v 0.8 1.6 2.4
v -0.8 0 4
v 0.8 0 4
v -0.7 0 3.9
v 0.7 0 3.9
v -0.7 0 2.5
v 0.7 0 2.5
v -0.8 0 2.4
v 0.8 0 2.4
v -0.8 1.6 4
v 0.8 1.6 4
v -0.7 1.6 3.9
v 0.7 1.6 3.9
v -0.7 1.6 2.5
v 0.7 1.6 2.5
v -0.8 1.6 2.4
v 0.8 1.6 2.4

# faces
f 3/3/1 2/3/1 1/3/1
f 4/3/1 2/3/1 3/3/1
f 5/3/1 2/3/1 4/3/1
f 6/3/1 2/3/1 5/3/1
f 7/3/1 2/3/1 6/3/1
f 8/3/1 2/3/1 7/3/1
f 9/3/1 2/3/1 8/3/1
f 10/3/1 2/3/1 9/3/1
f 11/1/1 4/1/1 3/1/1
f 12/2/1 5/2/1 4/2/1
f 12/1/1 4/1/1 11/1/1
f 13/3/1 6/3/1 5/3/1
f 13/2/1 5/2/1 12/2/1
f 14/1/1 7/1/1 6/1/1
f 14/3/1 6/3/1 13/3/1
f 15/2/1 8/2/1 7/2/1
f 15/1/1 7/1/1 14/1/1
f 16/3/1 9/3/1 8/3/1
f 16/2/1 8/2/1 15/2/1
f 17/1/1 10/1/1 9/1/1
f 17/3/1 9/3/1 16/3/1
f 18/1/1 10/1/1 17/1/1
f 19/3/1 12/3/1 11/3/1
f 19/3/1 13/3/1 12/3/1
f 19/3/1 18/3/1 17/3/1
f 19/3/1 17/3/1 16/3/1
f 19/3/1 16/3/1 15/3/1
f 19/3/1 15/3/1 14/3/1
f 19/3/1 14/3/1 13/3/1
f 20/3/1 18/3/1 19/3/1
f 21/3/1 18/3/1 20/3/1
f 22/3/1 18/3/1 21/3/1
f 23/3/1 18/3/1 22/3/1
f 24/3/1 18/3/1 23/3/1
f 25/3/1 18/3/1 24/3/1
f 26/3/1 18/3/1 25/3/1
f 27/3/1 18/3/1 26/3/1
f 28/3/1 18/3/1 27/3/1
f 29/3/1 18/3/1 28/3/1
f 30/1/1 20/1/1 19/1/1
f 31/2/1 21/2/1 20/2/1
f 31/1/1 20/1/1 30/1/1
f 32/3/1 22/3/1 21/3/1
f 32/2/1 21/2/1 31/2/1
f 33/1/1 23/1/1 22/1/1
f 33/3/1 22/3/1 32/3/1
f 34/2/1 24/2/1 23/2/1
f 34/1/1 23/1/1 33/1/1
f 35/3/1 25/3/1 24/3/1
f 35/2/1 24/2/1 34/2/1
f 36/1/1 26/1/1 25/1/1
f 36/3/1 25/3/1 35/3/1
f 37/2/1 27/2/1 26/2/1
f 37/1/1 26/1/1 36/1/1
f 38/3/1 28/3/1 27/3/1
f 38/2/1 27/2/1 37/2/1
f 39/1/1 29/1/1 28/1/1
f 39/3/1 28/3/1 38/3/1
f 40/1/1 29/1/1 39/1/1
f 41/3/1 31/3/1 30/3/1
f 41/3/1 32/3/1 31/3/1
f 41/3/1 40/3/1 39/3/1
f 41/3/1 39/3/1 38/3/1
f 41/3/1 38/3/1 37/3/1
f 41/3/1 37/3/1 36/3/1
f 41/3/1 36/3/1 35/3/1
f 41/3/1 35/3/1 34/3/1
f 41/3/1 34/3/1 33/3/1
f 41/3/1 33/3/1 32/3/1
f 42/3/1 40/3/1 41/3/1
f 43/3/1 40/3/1 42/3/1
f 44/3/1 40/3/1 43/3/1
f 45/3/1 40/3/1 44/3/1
f 46/3/1 40/3/1 45/3/1
f 47/3/1 40/3/1 46/3/1
f 48/3/1 40/3/1 47/3/1
f 49/1/1 42/1/1 41/1/1
f 50/2/1 43/2/1 42/2/1
f 50/1/1 42/1/1 49/1/1
f 51/3/1 44/3/1 43/3/1
f 51/2/1 43/2/1 50/2/1
f 52/1/1 45/1/1 44/1/1
f 52/3/1 44/3/1 51/3/1
f 53/2/1 46/2/1 45/2/1
f 53/1/1 45/1/1 52/1/1
f 54/3/1 47/3/1 46/3/1
f 54/2/1 46/2/1 53/2/1
f 55/1/1 48/1/1 47/1/1
f 55/3/1 47/3/1 54/3/1
f 56/1/1 48/1/1 55/1/1
f 57/3/1 50/3/1 49/3/1
f 57/3/1 51/3/1 50/3/1
f 57/3/1 56/3/1 55/3/1
f 57/3/1 55/3/1 54/3/1
f 57/3/1 54/3/1 53/3/1
f 57/3/1 53/3/1 52/3/1
f 57/3/1 52/3/1 51/3/1
f 58/3/1 56/3/1 57/3/1
f 59/3/1 56/3/1 58/3/1
f 60/3/1 56/3/1 59/3/1
f 61/3/1 56/3/1 60/3/1
f 62/3/1 56/3/1 61/3/1
f 63/3/1 56/3/1 62/3/1
f 64/3/1 56/3/1 63/3/1
f 65/3/1 56/3/1 64/3/1
f 66/3/1 56/3/1 65/3/1
f 67/3/1 56/3/1 66/3/1
f 68/1/1 58/1/1 57/1/1
f 69/2/1 59/2/1 58/2/1
f 69/1/1 58/1/1 68/1/1
f 70/3/1 60/3/1 59/3/1
f 70/2/1 59/2/1 69/2/1
f 71/1/1 61/1/1 60/1/1
f 71/3/1 60/3/1 70/3/1
f 72/2/1 62/2/1 61/2/1
f 72/1/1 61/1/1 71/1/1
f 73/3/1 63/3/1 62/3/1
f 73/2/1 62/2/1 72/2/1
f 74/1/1 64/1/1 63/1/1
f 74/3/1 63/3/1 73/3/1
f 75/2/1 65/2/1 64/2/1
f 75/1/1 64/1/1 74/1/1
f 76/3/1 66/3/1 65/3/1
f 76/2/1 65/2/1 75/2/1
f 77/1/1 67/1/1 66/1/1
f 77/3/1 66/3/1 76/3/1
f 78/1/1 67/1/1 77/1/1
f 79/3/1 69/3/1 68/3/1
f 79/3/1 70/3/1 69/3/1
f 79/3/1 78/3/1 77/3/1
f 79/3/1 77/3/1 76/3/1
f 79/3/1 76/3/1 75/3/1
f 79/3/1 75/3/1 74/3/1
f 79/3/1 74/3/1 73/3/1
f 79/3/1 73/3/1 72/3/1
f 79/3/1 72/3/1 71/3/1
f 79/3/1 71/3/1 70/3/1
f 80/3/1 78/3/1 79/3/1
f 81/3/1 78/3/1 80/3/1
f 82/3/1 78/3/1 81/3/1
f 83/3/1 78/3/1 82/3/1
f 84/3/1 78/3/1 83/3/1
f 85/3/1 78/3/1 84/3/1
f 86/3/1 78/3/1 85/3/1
f 87/1/1 80/1/1 79/1/1
f 88/2/1 81/2/1 80/2/1
f 88/1/1 80/1/1 87/1/1
f 89/3/1 82/3/1 81/3/1
f 89/2/1 81/2/1 88/2/1
f 90/1/1 83/1/1 82/1/1
f 90/3/1 82/3/1 89/3/1
f 91/2/1 84/2/1 83/2/1
f 91/1/1 83/1/1 90/1/1
f 92/3/1 85/3/1 84/3/1
f 92/2/1 84/2/1 91/2/1
f 93/1/1 86/1/1 85/1/1
f 93/3/1 85/3/1 92/3/1
f 94/1/1 86/1/1 93/1/1
f 95/3/1 88/3/1 87/3/1
f 95/3/1 89/3/1 88/3/1
f 95/3/1 94/3/1 93/3/1
f 95/3/1 93/3/1 92/3/1
f 95/3/1 92/3/1 91/3/1
f 95/3/1 91/3/1 90/3/1
f 95/3/1 90/3/1 89/3/1
f 96/3/1 94/3/1 95/3/1
f 97/3/2 98/3/2 99/3/2
f 99/3/2 98/3/2 100/3/2
f 100/3/2 98/3/2 101/3/2
f 101/3/2 98/3/2 102/3/2
f 102/3/2 98/3/2 103/3/2
f 103/3/2 98/3/2 104/3/2
f 104/3/2 98/3/2 105/3/2
f 105/3/2 98/3/2 106/3/2
f 99/1/2 100/1/2 107/1/2
f 100/3/2 101/3/2 108/3/2
f 107/1/2 100/1/2 108/1/2
f 101/2/2 102/2/2 109/2/2
f 108/3/2 101/3/2 109/3/2
f 102/1/2 103/1/2 110/1/2
f 109/2/2 102/2/2 110/2/2
f 103/3/2 104/3/2 111/3/2
f 110/1/2 103/1/2 111/1/2
f 104/2/2 105/2/2 112/2/2
f 111/3/2 104/3/2 112/3/2
f 105/1/2 106/1/2 113/1/2
f 112/2/2 105/2/2 113/2/2
f 113/1/2 106/1/2 114/1/2
f 107/3/2 108/3/2 115/3/2
f 108/3/2 109/3/2 115/3/2
f 113/3/2 114/3/2 115/3/2
f 112/3/2 113/3/2 115/3/2
f 111/3/2 112/3/2 115/3/2
f 110/3/2 111/3/2 115/3/2
f 109/3/2 110/3/2 115/3/2
f 115/3/2 114/3/2 116/3/2
f 116/3/2 114/3/2 117/3/2
f 117/3/2 114/3/2 118/3/2
f 118/3/2 114/3/2 119/3/2
f 119/3/2 114/3/2 120/3/2
f 120/3/2 114/3/2 121/3/2
f 121/3/2 114/3/2 122/3/2
f 122/3/2 114/3/2 123/3/2
f 123/3/2 114/3/2 124/3/2
f 124/3/2 114/3/2 125/3/2
f 115/1/2 116/1/2 126/1/2
f 116/3/2 117/3/2 127/3/2
f 126/1/2 116/1/2 127/1/2
f 117/2/2 118/2/2 128/2/2
f 127/3/2 117/3/2 128/3/2
f 118/1/2 119/1/2 129/1/2
f 128/2/2 118/2/2 129/2/2
f 119/3/2 120/3/2 130/3/2
f 129/1/2 119/1/2 130/1/2
f 120/2/2 121/2/2 131/2/2
f 130/3/2 120/3/2 131/3/2
f 121/1/2 122/1/2 132/1/2
f 131/2/2 121/2/2 132/2/2
f 122/3/2 123/3/2 133/3/2
f 132/1/2 122/1/2 133/1/2
f 123/2/2 124/2/2 134/2/2
f 133/3/2 123/3/2 134/3/2
f 124/1/2 125/1/2 135/1/2
f 134/2/2 124/2/2 135/2/2
f 135/1/2 125/1/2 136/1/2
f 126/3/2 127/3/2 137/3/2
f 127/3/2 128/3/2 137/3/2
f 135/3/2 136/3/2 137/3/2
f 134/3/2 135/3/2 137/3/2
f 133/3/2 134/3/2 137/3/2
f 132/3/2 133/3/2 137/3/2
f 131/3/2 132/3/2 137/3/2
f 130/3/2 131/3/2 137/3/2
f 129/3/2 130/3/2 137/3/2
f 128/3/2 129/3/2 137/3/2
f 137/3/2 136/3/2 138/3/2
f 138/3/2 136/3/2 139/3/2
f 139/3/2 136/3/2 140/3/2
f 140/3/2 136/3/2 141/3/2
f 141/3/2 136/3/2 142/3/2
f 142/3/2 136/3/2 143/3/2
f 143/3/2 136/3/2 144/3/2
f 137/1/2 138/1/2 145/1/2
f 138/3/2 139/3/2 146/3/2
f 145/1/2 138/1/2 146/1/2
f 139/2/2 140/2/2 147/2/2
f 146/3/2 139/3/2 147/3/2
f 140/1/2 141/1/2 148/1/2
f 147/2/2 140/2/2 148/2/2
f 141/3/2 142/3/2 149/3/2
f 148/1/2 141/1/2 149/1/2
f 142/2/2 143/2/2 150/2/2
f 149/3/2 142/3/2 150/3/2
f 143/1/2 144/1/2 151/1/2
f 150/2/2 143/2/2 151/2/2
f 151/1/2 144/1/2 152/1/2
f 145/3/2 146/3/2 153/3/2
f 146/3/2 147/3/2 153/3/2
f 151/3/2 152/3/2 153/3/2
f 150/3/2 151/3/2 153/3/2
f 149/3/2 150/3/2 153/3/2
f 148/3/2 149/3/2 153/3/2
f 147/3/2 148/3/2 153/3/2
f 153/3/2 152/3/2 154/3/2
f 154/3/2 152/3/2 155/3/2
f 155/3/2 152/3/2 156/3/2
f 156/3/2 152/3/2 157/3/2
f 157/3/2 152/3/2 158/3/2
f 158/3/2 152/3/2 159/3/2
f 159/3/2 152/3/2 160/3/2
f 160/3/2 152/3/2 161/3/2
f 161/3/2 152/3/2 162/3/2
f 153/1/2 154/1/2 163/1/2
f 154/3/2 155/3/2 164/3/2
f 163/1/2 154/1/2 164/1/2
f 155/2/2 156/2/2 165/2/2
f 164/3/2 155/3/2 165/3/2
f 156/1/2 157/1/2 166/1/2
f 165/2/2 156/2/2 166/2/2
f 157/3/2 158/3/2 167/3/2
f 166/1/2 157/1/2 167/1/2
f 158/1/2 159/1/2 168/1/2
f 167/3/2 158/3/2 168/3/2
f 159/3/2 160/3/2 169/3/2
f 168/1/2 159/1/2 169/1/2
f 160/2/2 161/2/2 170/2/2
f 169/3/2 160/3/2 170/3/2
f 161/1/2 162/1/2 171/1/2
f 170/2/2 161/2/2 171/2/2
f 171/1/2 162/1/2 172/1/2
f 163/3/2 164/3/2 173/3/2
f 164/3/2 165/3/2 173/3/2
f 171/3/2 172/3/2 173/3/2
f 170/3/2 171/3/2 173/3/2
f 169/3/2 170/3/2 173/3/2
f 168/3/2 169/3/2 173/3/2
f 167/3/2 168/3/2 173/3/2
f 166/3/2 167/3/2 173/3/2
f 165/3/2 166/3/2 173/3/2
f 173/3/2 172/3/2 174/3/2
f 174/3/2 172/3/2 175/3/2
f 175/3/2 172/3/2 176/3/2
f 176/3/2 172/3/2 177/3/2
f 177/3/2 172/3/2 178/3/2
f 178/3/2 172/3/2 179/3/2
f 179/3/2 172/3/2 180/3/2
f 173/1/2 174/1/2 181/1/2
f 174/3/2 175/3/2 182/3/2
f 181/1/2 174/1/2 182/1/2
f 175/2/2 176/2/2 183/2/2
f 182/3/2 175/3/2 183/3/2
f 176/1/2 177/1/2 184/1/2
f 183/2/2 176/2/2 184/2/2
f 177/3/2 178/3/2 185/3/2
f 184/1/2 177/1/2 185/1/2
f 178/2/2 179/2/2 186/2/2
f 185/3/2 178/3/2 186/3/2
f 179/1/2 180/1/2 187/1/2
f 186/2/2 179/2/2 187/2/2
f 187/1/2 180/1/2 188/1/2
f 181/3/2 182/3/2 189/3/2
f 182/3/2 183/3/2 189/3/2
f 187/3/2 188/3/2 189/3/2
f 186/3/2 187/3/2 189/3/2
f 185/3/2 186/3/2 189/3/2
f 184/3/2 185/3/2 189/3/2
f 183/3/2 184/3/2 189/3/2
f 189/3/2 188/3/2 190/3/2
f 203/3/3 194/3/3 193/3/3
f 203/1/3 195/1/3 194/1/3
f 204/3/3 196/3/3 195/3/3
f 204/1/3 195/1/3 203/1/3
f 205/3/3 198/3/3 197/3/3
f 205/1/3 199/1/3 198/1/3
f 206/3/3 200/3/3 199/3/3
f 206/1/3 199/1/3 205/1/3
f 207/3/3 203/3/3 193/3/3
f 207/3/3 204/3/3 203/3/3
f 208/3/3 196/3/3 204/3/3
f 208/3/3 204/3/3 207/3/3
f 209/3/3 206/3/3 205/3/3
f 209/3/3 205/3/3 197/3/3
f 210/3/3 200/3/3 206/3/3
f 210/3/3 206/3/3 209/3/3
f 211/3/3 207/3/3 193/3/3
f 211/2/3 208/2/3 207/2/3
f 212/3/3 196/3/3 208/3/3
f 212/2/3 208/2/3 211/2/3
f 213/3/3 209/3/3 197/3/3
f 213/2/3 210/2/3 209/2/3
f 214/3/3 200/3/3 210/3/3
f 214/2/3 210/2/3 213/2/3
f 215/3/3 192/3/3 191/3/3
f 215/1/3 193/1/3 192/1/3
f 216/3/3 211/3/3 193/3/3
f 216/1/3 193/1/3 215/1/3
f 217/3/3 196/3/3 212/3/3
f 217/1/3 197/1/3 196/1/3
f 218/3/3 213/3/3 197/3/3
f 218/1/3 197/1/3 217/1/3
f 219/3/3 200/3/3 214/3/3
f 219/1/3 201/1/3 200/1/3
f 220/3/3 202/3/3 201/3/3
f 220/1/3 201/1/3 219/1/3
f 221/3/3 216/3/3 215/3/3
f 221/3/3 215/3/3 191/3/3
f 222/3/3 211/3/3 216/3/3
f 222/3/3 216/3/3 221/3/3
f 223/3/3 218/3/3 217/3/3
f 223/3/3 217/3/3 212/3/3
f 224/3/3 213/3/3 218/3/3
f 224/3/3 218/3/3 223/3/3
f 225/3/3 219/3/3 214/3/3
f 225/3/3 220/3/3 219/3/3
f 226/3/3 202/3/3 220/3/3
f 226/3/3 220/3/3 225/3/3
f 227/3/3 221/3/3 191/3/3
f 227/2/3 222/2/3 221/2/3
f 228/3/3 211/3/3 222/3/3
f 228/2/3 222/2/3 227/2/3
f 229/1/3 212/1/3 211/1/3
f 229/3/3 211/3/3 228/3/3
f 230/3/3 223/3/3 212/3/3
f 230/1/3 212/1/3 229/1/3
f 231/2/3 224/2/3 223/2/3
f 231/3/3 223/3/3 230/3/3
f 232/3/3 213/3/3 224/3/3
f 232/2/3 224/2/3 231/2/3
f 233/1/3 214/1/3 213/1/3
f 233/3/3 213/3/3 232/3/3
f 234/3/3 225/3/3 214/3/3
f 234/1/3 214/1/3 233/1/3
f 235/2/3 226/2/3 225/2/3
f 235/3/3 225/3/3 234/3/3
f 236/3/3 202/3/3 226/3/3
f 236/2/3 226/2/3 235/2/3
f 237/3/3 229/3/3 228/3/3
f 237/3/3 231/3/3 230/3/3
f 237/3/3 230/3/3 229/3/3
f 238/3/3 231/3/3 237/3/3
f 239/3/3 235/3/3 234/3/3
f 239/3/3 233/3/3 232/3/3
f 239/3/3 234/3/3 233/3/3
f 240/3/3 235/3/3 239/3/3
f 241/2/3 238/2/3 237/2/3
f 241/3/3 237/3/3 228/3/3
f 242/3/3 231/3/3 238/3/3
f 242/2/3 238/2/3 241/2/3
f 243/2/3 240/2/3 239/2/3
f 243/3/3 239/3/3 232/3/3
f 244/3/3 235/3/3 240/3/3
f 244/2/3 240/2/3 243/2/3
f 245/3/3 241/3/3 228/3/3
f 245/1/3 242/1/3 241/1/3
f 246/3/3 231/3/3 242/3/3
f 246/1/3 242/1/3 245/1/3
f 247/3/3 243/3/3 232/3/3
f 247/1/3 244/1/3 243/1/3
f 248/3/3 235/3/3 244/3/3
f 248/1/3 244/1/3 247/1/3
f 249/3/3 227/3/3 191/3/3
f 249/1/3 228/1/3 227/1/3
f 250/3/3 245/3/3 228/3/3
f 250/1/3 228/1/3 249/1/3
f 250/3/3 246/3/3 245/3/3
f 251/3/3 246/3/3 250/3/3
f 252/3/3 231/3/3 246/3/3
f 252/3/3 246/3/3 251/3/3
f 253/1/3 232/1/3 231/1/3
f 253/3/3 231/3/3 252/3/3
f 254/3/3 247/3/3 232/3/3
f 254/1/3 232/1/3 253/1/3
f 254/3/3 248/3/3 247/3/3
f 255/3/3 248/3/3 254/3/3
f 256/3/3 235/3/3 248/3/3
f 256/3/3 248/3/3 255/3/3
f 257/1/3 236/1/3 235/1/3
f 257/3/3 235/3/3 256/3/3
f 258/3/3 202/3/3 236/3/3
f 258/1/3 236/1/3 257/1/3
f 259/3/3 251/3/3 250/3/3
f 259/3/3 249/3/3 191/3/3
f 259/3/3 250/3/3 249/3/3
f 260/3/3 251/3/3 259/3/3
f 261/2/3 252/2/3 251/2/3
f 261/3/3 251/3/3 260/3/3
f 262/3/3 255/3/3 254/3/3
f 262/2/3 252/2/3 261/2/3
f 262/3/3 253/3/3 252/3/3
f 262/3/3 254/3/3 253/3/3
f 263/3/3 255/3/3 262/3/3
f 264/3/3 255/3/3 263/3/3
f 265/2/3 256/2/3 255/2/3
f 265/3/3 255/3/3 264/3/3
f 266/3/3 257/3/3 256/3/3
f 266/2/3 256/2/3 265/2/3
f 266/3/3 258/3/3 257/3/3
f 267/3/3 258/3/3 266/3/3
f 268/3/3 202/3/3 258/3/3
f 268/3/3 258/3/3 267/3/3
f 269/2/3 260/2/3 259/2/3
f 269/3/3 259/3/3 191/3/3
f 270/3/3 261/3/3 260/3/3
f 270/2/3 260/2/3 269/2/3
f 271/2/3 264/2/3 263/2/3
f 271/3/3 263/3/3 262/3/3
f 272/3/3 265/3/3 264/3/3
f 272/2/3 264/2/3 271/2/3
f 273/2/3 268/2/3 267/2/3
f 273/3/3 267/3/3 266/3/3
f 274/3/3 202/3/3 268/3/3
f 274/2/3 268/2/3 273/2/3
f 275/3/3 269/3/3 191/3/3
f 276/1/3 270/1/3 269/1/3
f 276/3/3 269/3/3 275/3/3
f 277/3/3 261/3/3 270/3/3
f 277/1/3 270/1/3 276/1/3
f 278/1/3 262/1/3 261/1/3
f 278/3/3 261/3/3 277/3/3
f 279/3/3 271/3/3 262/3/3
f 279/1/3 262/1/3 278/1/3
f 280/1/3 272/1/3 271/1/3
f 280/3/3 271/3/3 279/3/3
f 281/3/3 265/3/3 272/3/3
f 281/1/3 272/1/3 280/1/3
f 282/1/3 266/1/3 265/1/3
f 282/3/3 265/3/3 281/3/3
f 283/3/3 273/3/3 266/3/3
f 283/1/3 266/1/3 282/1/3
f 284/1/3 274/1/3 273/1/3
f 284/3/3 273/3/3 283/3/3
f 285/3/3 202/3/3 274/3/3
f 285/1/3 274/1/3 284/1/3
f 286/3/3 202/3/3 285/3/3
f 287/3/4 288/3/4 299/3/4
f 288/1/4 289/1/4 299/1/4
f 289/3/4 290/3/4 300/3/4
f 299/1/4 289/1/4 300/1/4
f 291/3/4 292/3/4 301/3/4
f 292/1/4 293/1/4 301/1/4
f 293/3/4 294/3/4 302/3/4
f 301/1/4 293/1/4 302/1/4
f 296/1/4 297/1/4 303/1/4
f 295/3/4 296/3/4 303/3/4
f 297/3/4 298/3/4 304/3/4
f 303/1/4 297/1/4 304/1/4
f 287/3/4 299/3/4 305/3/4
f 299/2/4 300/2/4 305/2/4
f 300/3/4 290/3/4 306/3/4
f 305/2/4 300/2/4 306/2/4
f 290/1/4 291/1/4 307/1/4
f 306/3/4 290/3/4 307/3/4
f 291/3/4 301/3/4 308/3/4
f 307/1/4 291/1/4 308/1/4
f 301/2/4 302/2/4 309/2/4
f 308/3/4 301/3/4 309/3/4
f 302/3/4 294/3/4 310/3/4
f 309/2/4 302/2/4 310/2/4
f 294/1/4 295/1/4 311/1/4
f 310/3/4 294/3/4 311/3/4
f 295/3/4 303/3/4 312/3/4
f 311/1/4 295/1/4 312/1/4
f 303/2/4 304/2/4 313/2/4
f 312/3/4 303/3/4 313/3/4
f 304/3/4 298/3/4 314/3/4
f 313/2/4 304/2/4 314/2/4
f 305/3/4 306/3/4 315/3/4
f 287/3/4 305/3/4 315/3/4
f 306/3/4 307/3/4 315/3/4
f 315/3/4 307/3/4 316/3/4
f 307/2/4 308/2/4 317/2/4
f 316/3/4 307/3/4 317/3/4
f 310/3/4 311/3/4 318/3/4
f 317/2/4 308/2/4 318/2/4
f 308/3/4 309/3/4 318/3/4
f 309/3/4 310/3/4 318/3/4
f 318/3/4 311/3/4 319/3/4
f 319/3/4 311/3/4 320/3/4
f 311/2/4 312/2/4 321/2/4
f 320/3/4 311/3/4 321/3/4
f 312/3/4 313/3/4 322/3/4
f 321/2/4 312/2/4 322/2/4
f 313/3/4 314/3/4 322/3/4
f 322/3/4 314/3/4 323/3/4
f 314/3/4 298/3/4 324/3/4
f 323/3/4 314/3/4 324/3/4
f 316/3/4 317/3/4 325/3/4
f 318/3/4 319/3/4 325/3/4
f 317/3/4 318/3/4 325/3/4
f 325/3/4 319/3/4 326/3/4
f 320/3/4 321/3/4 327/3/4
f 322/3/4 323/3/4 327/3/4
f 321/3/4 322/3/4 327/3/4
f 327/3/4 323/3/4 328/3/4
f 325/1/4 326/1/4 329/1/4
f 316/3/4 325/3/4 329/3/4
f 326/3/4 319/3/4 330/3/4
f 329/1/4 326/1/4 330/1/4
f 327/1/4 328/1/4 331/1/4
f 320/3/4 327/3/4 331/3/4
f 328/3/4 323/3/4 332/3/4
f 331/1/4 328/1/4 332/1/4
f 316/3/4 329/3/4 333/3/4
f 329/2/4 330/2/4 333/2/4
f 330/3/4 319/3/4 334/3/4
f 333/2/4 330/2/4 334/2/4
f 320/3/4 331/3/4 335/3/4
f 331/2/4 332/2/4 335/2/4
f 332/3/4 323/3/4 336/3/4
f 335/2/4 332/2/4 336/2/4
f 287/3/4 315/3/4 337/3/4
f 315/1/4 316/1/4 337/1/4
f 316/3/4 333/3/4 338/3/4
f 337/1/4 316/1/4 338/1/4
f 333/3/4 334/3/4 338/3/4
f 338/3/4 334/3/4 339/3/4
f 334/3/4 319/3/4 340/3/4
f 339/3/4 334/3/4 340/3/4
f 319/1/4 320/1/4 341/1/4
f 340/3/4 319/3/4 341/3/4
f 320/3/4 335/3/4 342/3/4
f 341/1/4 320/1/4 342/1/4
f 335/3/4 336/3/4 342/3/4
f 342/3/4 336/3/4 343/3/4
f 336/3/4 323/3/4 344/3/4
f 343/3/4 336/3/4 344/3/4
f 323/1/4 324/1/4 345/1/4
f 344/3/4 323/3/4 345/3/4
f 324/3/4 298/3/4 346/3/4
f 345/1/4 324/1/4 346/1/4
f 337/2/4 338/2/4 347/2/4
f 287/3/4 337/3/4 347/3/4
f 338/3/4 339/3/4 348/3/4
f 347/2/4 338/2/4 348/2/4
f 340/3/4 341/3/4 349/3/4
f 341/2/4 342/2/4 349/2/4
f 342/3/4 343/3/4 350/3/4
f 349/2/4 342/2/4 350/2/4
f 344/3/4 345/3/4 351/3/4
f 345/2/4 346/2/4 351/2/4
f 346/3/4 298/3/4 352/3/4
f 351/2/4 346/2/4 352/2/4
f 287/3/4 347/3/4 353/3/4
f 347/3/4 348/3/4 353/3/4
f 348/3/4 339/3/4 354/3/4
f 353/3/4 348/3/4 354/3/4
f 340/3/4 349/3/4 355/3/4
f 349/3/4 350/3/4 355/3/4
f 350/3/4 343/3/4 356/3/4
f 355/3/4 350/3/4 356/3/4
f 344/3/4 351/3/4 357/3/4
f 351/3/4 352/3/4 357/3/4
f 352/3/4 298/3/4 358/3/4
f 357/3/4 352/3/4 358/3/4
f 354/3/4 339/3/4 359/3/4
f 339/1/4 340/1/4 359/1/4
f 340/3/4 355/3/4 360/3/4
f 359/1/4 340/1/4 360/1/4
f 343/1/4 344/1/4 361/1/4
f 356/3/4 343/3/4 361/3/4
f 344/3/4 357/3/4 362/3/4
f 361/1/4 344/1/4 362/1/4
f 354/3/4 359/3/4 363/3/4
f 359/2/4 360/2/4 363/2/4
f 360/3/4 355/3/4 364/3/4
f 363/2/4 360/2/4 364/2/4
f 356/3/4 361/3/4 365/3/4
f 361/2/4 362/2/4 365/2/4
f 362/3/4 357/3/4 366/3/4
f 365/2/4 362/2/4 366/2/4
f 354/3/4 363/3/4 367/3/4
f 363/3/4 364/3/4 367/3/4
f 364/3/4 355/3/4 368/3/4
f 367/3/4 364/3/4 368/3/4
f 356/3/4 365/3/4 369/3/4
f 365/3/4 366/3/4 369/3/4
f 366/3/4 357/3/4 370/3/4
f 369/3/4 366/3/4 370/3/4
f 287/3/4 353/3/4 371/3/4
f 353/1/4 354/1/4 372/1/4
f 371/3/4 353/3/4 372/3/4
f 354/3/4 367/3/4 373/3/4
f 372/1/4 354/1/4 373/1/4
f 367/1/4 368/1/4 374/1/4
f 373/3/4 367/3/4 374/3/4
f 368/3/4 355/3/4 375/3/4
f 374/1/4 368/1/4 375/1/4
f 355/1/4 356/1/4 376/1/4
f 375/3/4 355/3/4 376/3/4
f 356/3/4 369/3/4 377/3/4
f 376/1/4 356/1/4 377/1/4
f 369/1/4 370/1/4 378/1/4
f 377/3/4 369/3/4 378/3/4
f 370/3/4 357/3/4 379/3/4
f 378/1/4 370/1/4 379/1/4
f 357/1/4 358/1/4 380/1/4
f 379/3/4 357/3/4 380/3/4
f 358/3/4 298/3/4 381/3/4
f 380/1/4 358/1/4 381/1/4
f 381/3/4 298/3/4 382/3/4
f 385/3/5 384/3/5 383/3/5
f 386/3/5 384/3/5 385/3/5
f 387/3/5 385/3/5 383/3/5
f 387/2/5 386/2/5 385/2/5
f 388/3/5 384/3/5 386/3/5
f 388/2/5 386/2/5 387/2/5
f 389/3/5 387/3/5 383/3/5
f 389/3/5 388/3/5 387/3/5
f 390/3/5 384/3/5 388/3/5
f 390/3/5 388/3/5 389/3/5
f 391/3/6 392/3/6 393/3/6
f 393/3/6 392/3/6 394/3/6
f 391/3/6 393/3/6 395/3/6
f 393/2/6 394/2/6 395/2/6
f 394/3/6 392/3/6 396/3/6
f 395/2/6 394/2/6 396/2/6
f 391/3/6 395/3/6 397/3/6
f 395/3/6 396/3/6 397/3/6
f 396/3/6 392/3/6 398/3/6
f 397/3/6 396/3/6 398/3/6
