# MagicaVoxel @ Ephtracy

# group
o 

# material
mtllib untitled.mtl
usemtl palette

# normals
vn -1 0 0
vn 1 0 0
vn 0 0 1
vn 0 0 -1
vn 0 -1 0
vn 0 1 0

# texcoords
vt 0.958984 0.5
vt 0.962891 0.5
vt 0.966797 0.5

# verts
v -0.8 0 0.3
v -0.8 0 -0.3
v -0.8 1.6 0.3
v -0.8 1.6 -0.3
v -0.7 0 0.5
v -0.7 0 0.3
v -0.7 0 -0.3
v -0.7 0 -0.5
v -0.7 1.6 0.5
v -0.7 1.6 0.3
v -0.7 1.6 -0.3
v -0.7 1.6 -0.5
v -0.6 0 0.6
v -0.6 0 0.5
v -0.6 0 -0.5
v -0.6 0 -0.6
v -0.6 1.6 0.6
v -0.6 1.6 0.5
v -0.6 1.6 -0.5
v -0.6 1.6 -0.6
v -0.5 0 0.7
v -0.5 0 0.6
v -0.5 0 -0.6
v -0.5 0 -0.7
v -0.5 1.6 0.7
v -0.5 1.6 0.6
v -0.5 1.6 -0.6
v -0.5 1.6 -0.7
v -0.3 0 0.8
v -0.3 0 0.7
v -0.3 0 -0.7
v -0.3 0 -0.8
v -0.3 1.6 0.8
v -0.3 1.6 0.7
v -0.3 1.6 -0.7
v -0.3 1.6 -0.8
v 0.3 0 0.8
v 0.3 0 0.7
v 0.3 0 -0.7
v 0.3 0 -0.8
v 0.3 1.6 0.8
v 0.3 1.6 0.7
v 0.3 1.6 -0.7
v 0.3 1.6 -0.8
v 0.5 0 0.7
v 0.5 0 0.6
v 0.5 0 -0.6
v 0.5 0 -0.7
v 0.5 1.6 0.7
v 0.5 1.6 0.6
v 0.5 1.6 -0.6
v 0.5 1.6 -0.7
v 0.6 0 0.6
v 0.6 0 0.5
v 0.6 0 -0.5
v 0.6 0 -0.6
v 0.6 1.6 0.6
v 0.6 1.6 0.5
v 0.6 1.6 -0.5
v 0.6 1.6 -0.6
v 0.7 0 0.5
v 0.7 0 0.3
v 0.7 0 -0.3
v 0.7 0 -0.5
v 0.7 1.6 0.5
v 0.7 1.6 0.3
v 0.7 1.6 -0.3
v 0.7 1.6 -0.5
v 0.8 0 0.3
v 0.8 0 -0.3
v 0.8 1.6 0.3
v 0.8 1.6 -0.3
v -0.3 0 0.8
v -0.3 1.6 0.8
v 0.3 0 0.8
v 0.3 1.6 0.8
v -0.5 0 0.7
v -0.5 1.6 0.7
v -0.3 0 0.7
v -0.3 1.6 0.7
v 0.3 0 0.7
v 0.3 1.6 0.7
v 0.5 0 0.7
v 0.5 1.6 0.7
v -0.6 0 0.6
v -0.6 1.6 0.6
v -0.5 0 0.6
v -0.5 1.6 0.6
v 0.5 0 0.6
v 0.5 1.6 0.6
v 0.6 0 0.6
v 0.6 1.6 0.6
v -0.7 0 0.5
v -0.7 1.6 0.5
v -0.6 0 0.5
v -0.6 1.6 0.5
v 0.6 0 0.5
v 0.6 1.6 0.5
v 0.7 0 0.5
v 0.7 1.6 0.5
v -0.8 0 0.3
v -0.8 1.6 0.3
v -0.7 0 0.3
v -0.7 1.6 0.3
v 0.7 0 0.3
v 0.7 1.6 0.3
v 0.8 0 0.3
v 0.8 1.6 0.3
v -0.8 0 -0.3
v -0.8 1.6 -0.3
v -0.7 0 -0.3
v -0.7 1.6 -0.3
v 0.7 0 -0.3
v 0.7 1.6 -0.3
v 0.8 0 -0.3
v 0.8 1.6 -0.3
v -0.7 0 -0.5
v -0.7 1.6 -0.5
v -0.6 0 -0.5
v -0.6 1.6 -0.5
v 0.6 0 -0.5
v 0.6 1.6 -0.5
v 0.7 0 -0.5
v 0.7 1.6 -0.5
v -0.6 0 -0.6
v -0.6 1.6 -0.6
v -0.5 0 -0.6
v -0.5 1.6 -0.6
v 0.5 0 -0.6
v 0.5 1.6 -0.6
v 0.6 0 -0.6
v 0.6 1.6 -0.6
v -0.5 0 -0.7
v -0.5 1.6 -0.7
v -0.3 0 -0.7
v -0.3 1.6 -0.7
v 0.3 0 -0.7
v 0.3 1.6 -0.7
v 0.5 0 -0.7
v 0.5 1.6 -0.7
v -0.3 0 -0.8
v -0.3 1.6 -0.8
v 0.3 0 -0.8
v 0.3 1.6 -0.8
v -0.3 0 0.8
v 0.3 0 0.8
v -0.5 0 0.7
v -0.3 0 0.7
v 0.3 0 0.7
v 0.5 0 0.7
v -0.6 0 0.6
v -0.5 0 0.6
v -0.3 0 0.6
v 0.3 0 0.6
v 0.5 0 0.6
v 0.6 0 0.6
v -0.7 0 0.5
v -0.6 0 0.5
v -0.5 0 0.5
v 0.5 0 0.5
v 0.6 0 0.5
v 0.7 0 0.5
v -0.8 0 0.3
v -0.7 0 0.3
v -0.6 0 0.3
v 0.6 0 0.3
v 0.7 0 0.3
v 0.8 0 0.3
v -0.8 0 -0.3
v -0.7 0 -0.3
v -0.6 0 -0.3
v -0.5 0 -0.3
v -0.3 0 -0.3
v 0.6 0 -0.3
v 0.7 0 -0.3
v 0.8 0 -0.3
v -0.7 0 -0.5
v -0.6 0 -0.5
v -0.5 0 -0.5
v 0.5 0 -0.5
v 0.6 0 -0.5
v 0.7 0 -0.5
v -0.6 0 -0.6
v -0.5 0 -0.6
v -0.3 0 -0.6
v 0.3 0 -0.6
v 0.5 0 -0.6
v 0.6 0 -0.6
v -0.5 0 -0.7
v -0.3 0 -0.7
v 0.3 0 -0.7
v 0.5 0 -0.7
v -0.3 0 -0.8
v 0.3 0 -0.8
v -0.3 1.6 0.8
v 0.3 1.6 0.8
v -0.5 1.6 0.7
v -0.3 1.6 0.7
v 0.3 1.6 0.7
v 0.5 1.6 0.7
v -0.6 1.6 0.6
v -0.5 1.6 0.6
v -0.3 1.6 0.6
v 0.3 1.6 0.6
v 0.5 1.6 0.6
v 0.6 1.6 0.6
v -0.7 1.6 0.5
v -0.6 1.6 0.5
v -0.5 1.6 0.5
v 0.5 1.6 0.5
v 0.6 1.6 0.5
v 0.7 1.6 0.5
v -0.8 1.6 0.3
v -0.7 1.6 0.3
v -0.6 1.6 0.3
v 0.6 1.6 0.3
v 0.7 1.6 0.3
v 0.8 1.6 0.3
v -0.8 1.6 -0.3
v -0.7 1.6 -0.3
v -0.6 1.6 -0.3
v 0.6 1.6 -0.3
v 0.7 1.6 -0.3
v 0.8 1.6 -0.3
v -0.7 1.6 -0.5
v -0.6 1.6 -0.5
v -0.5 1.6 -0.5
v 0.5 1.6 -0.5
v 0.6 1.6 -0.5
v 0.7 1.6 -0.5
v -0.6 1.6 -0.6
v -0.5 1.6 -0.6
v -0.3 1.6 -0.6
v 0.3 1.6 -0.6
v 0.5 1.6 -0.6
v 0.6 1.6 -0.6
v -0.5 1.6 -0.7
v -0.3 1.6 -0.7
v 0.3 1.6 -0.7
v 0.5 1.6 -0.7
v -0.3 1.6 -0.8
v 0.3 1.6 -0.8

# faces
f 3/1/1 2/1/1 1/1/1
f 4/1/1 2/1/1 3/1/1
f 9/2/1 6/2/1 5/2/1
f 10/2/1 6/2/1 9/2/1
f 11/2/1 8/2/1 7/2/1
f 12/2/1 8/2/1 11/2/1
f 17/3/1 14/3/1 13/3/1
f 18/3/1 14/3/1 17/3/1
f 19/3/1 16/3/1 15/3/1
f 20/3/1 16/3/1 19/3/1
f 25/2/1 22/2/1 21/2/1
f 26/2/1 22/2/1 25/2/1
f 27/2/1 24/2/1 23/2/1
f 28/2/1 24/2/1 27/2/1
f 33/1/1 30/1/1 29/1/1
f 34/1/1 30/1/1 33/1/1
f 35/1/1 32/1/1 31/1/1
f 36/1/1 32/1/1 35/1/1
f 37/1/2 38/1/2 41/1/2
f 41/1/2 38/1/2 42/1/2
f 39/1/2 40/1/2 43/1/2
f 43/1/2 40/1/2 44/1/2
f 45/2/2 46/2/2 49/2/2
f 49/2/2 46/2/2 50/2/2
f 47/2/2 48/2/2 51/2/2
f 51/2/2 48/2/2 52/2/2
f 53/3/2 54/3/2 57/3/2
f 57/3/2 54/3/2 58/3/2
f 55/3/2 56/3/2 59/3/2
f 59/3/2 56/3/2 60/3/2
f 61/2/2 62/2/2 65/2/2
f 65/2/2 62/2/2 66/2/2
f 63/2/2 64/2/2 67/2/2
f 67/2/2 64/2/2 68/2/2
f 69/1/2 70/1/2 71/1/2
f 71/1/2 70/1/2 72/1/2
f 75/1/3 74/1/3 73/1/3
f 76/1/3 74/1/3 75/1/3
f 79/2/3 78/2/3 77/2/3
f 80/2/3 78/2/3 79/2/3
f 83/2/3 82/2/3 81/2/3
f 84/2/3 82/2/3 83/2/3
f 87/3/3 86/3/3 85/3/3
f 88/3/3 86/3/3 87/3/3
f 91/3/3 90/3/3 89/3/3
f 92/3/3 90/3/3 91/3/3
f 95/2/3 94/2/3 93/2/3
f 96/2/3 94/2/3 95/2/3
f 99/2/3 98/2/3 97/2/3
f 100/2/3 98/2/3 99/2/3
f 103/1/3 102/1/3 101/1/3
f 104/1/3 102/1/3 103/1/3
f 107/1/3 106/1/3 105/1/3
f 108/1/3 106/1/3 107/1/3
f 109/1/4 110/1/4 111/1/4
f 111/1/4 110/1/4 112/1/4
f 113/1/4 114/1/4 115/1/4
f 115/1/4 114/1/4 116/1/4
f 117/2/4 118/2/4 119/2/4
f 119/2/4 118/2/4 120/2/4
f 121/2/4 122/2/4 123/2/4
f 123/2/4 122/2/4 124/2/4
f 125/3/4 126/3/4 127/3/4
f 127/3/4 126/3/4 128/3/4
f 129/3/4 130/3/4 131/3/4
f 131/3/4 130/3/4 132/3/4
f 133/2/4 134/2/4 135/2/4
f 135/2/4 134/2/4 136/2/4
f 137/2/4 138/2/4 139/2/4
f 139/2/4 138/2/4 140/2/4
f 141/1/4 142/1/4 143/1/4
f 143/1/4 142/1/4 144/1/4
f 148/1/5 146/1/5 145/1/5
f 149/1/5 146/1/5 148/1/5
f 152/2/5 148/2/5 147/2/5
f 153/1/5 149/1/5 148/1/5
f 153/2/5 148/2/5 152/2/5
f 154/2/5 150/2/5 149/2/5
f 154/1/5 149/1/5 153/1/5
f 155/2/5 150/2/5 154/2/5
f 158/3/5 152/3/5 151/3/5
f 159/1/5 153/1/5 152/1/5
f 159/1/5 154/1/5 153/1/5
f 159/3/5 152/3/5 158/3/5
f 159/1/5 155/1/5 154/1/5
f 160/3/5 156/3/5 155/3/5
f 160/1/5 155/1/5 159/1/5
f 161/3/5 156/3/5 160/3/5
f 164/2/5 158/2/5 157/2/5
f 165/1/5 159/1/5 158/1/5
f 165/1/5 160/1/5 159/1/5
f 165/2/5 158/2/5 164/2/5
f 165/1/5 161/1/5 160/1/5
f 166/2/5 162/2/5 161/2/5
f 166/1/5 161/1/5 165/1/5
f 167/2/5 162/2/5 166/2/5
f 169/1/5 165/1/5 164/1/5
f 169/1/5 168/1/5 167/1/5
f 169/1/5 167/1/5 166/1/5
f 169/1/5 166/1/5 165/1/5
f 169/1/5 164/1/5 163/1/5
f 170/1/5 168/1/5 169/1/5
f 171/1/5 168/1/5 170/1/5
f 172/1/5 168/1/5 171/1/5
f 173/1/5 168/1/5 172/1/5
f 174/1/5 168/1/5 173/1/5
f 175/1/5 168/1/5 174/1/5
f 176/1/5 168/1/5 175/1/5
f 177/2/5 171/2/5 170/2/5
f 178/1/5 172/1/5 171/1/5
f 178/2/5 171/2/5 177/2/5
f 179/3/5 173/3/5 172/3/5
f 179/1/5 172/1/5 178/1/5
f 180/1/5 174/1/5 173/1/5
f 181/2/5 175/2/5 174/2/5
f 181/1/5 174/1/5 180/1/5
f 182/2/5 175/2/5 181/2/5
f 183/3/5 179/3/5 178/3/5
f 184/3/5 173/3/5 179/3/5
f 184/3/5 179/3/5 183/3/5
f 185/1/5 180/1/5 173/1/5
f 185/3/5 173/3/5 184/3/5
f 186/1/5 180/1/5 185/1/5
f 187/3/5 181/3/5 180/3/5
f 187/1/5 180/1/5 186/1/5
f 188/3/5 181/3/5 187/3/5
f 189/2/5 185/2/5 184/2/5
f 190/1/5 186/1/5 185/1/5
f 190/2/5 185/2/5 189/2/5
f 191/2/5 187/2/5 186/2/5
f 191/1/5 186/1/5 190/1/5
f 192/2/5 187/2/5 191/2/5
f 193/1/5 191/1/5 190/1/5
f 194/1/5 191/1/5 193/1/5
f 195/1/6 196/1/6 198/1/6
f 198/1/6 196/1/6 199/1/6
f 197/2/6 198/2/6 202/2/6
f 198/1/6 199/1/6 203/1/6
f 202/2/6 198/2/6 203/2/6
f 199/2/6 200/2/6 204/2/6
f 203/1/6 199/1/6 204/1/6
f 204/2/6 200/2/6 205/2/6
f 201/3/6 202/3/6 208/3/6
f 202/1/6 203/1/6 209/1/6
f 203/1/6 204/1/6 209/1/6
f 208/3/6 202/3/6 209/3/6
f 204/1/6 205/1/6 209/1/6
f 205/3/6 206/3/6 210/3/6
f 209/1/6 205/1/6 210/1/6
f 210/3/6 206/3/6 211/3/6
f 207/2/6 208/2/6 214/2/6
f 208/1/6 209/1/6 215/1/6
f 209/1/6 210/1/6 215/1/6
f 214/2/6 208/2/6 215/2/6
f 210/1/6 211/1/6 215/1/6
f 211/2/6 212/2/6 216/2/6
f 215/1/6 211/1/6 216/1/6
f 216/2/6 212/2/6 217/2/6
f 214/1/6 215/1/6 219/1/6
f 217/1/6 218/1/6 219/1/6
f 216/1/6 217/1/6 219/1/6
f 215/1/6 216/1/6 219/1/6
f 213/1/6 214/1/6 219/1/6
f 219/1/6 218/1/6 220/1/6
f 220/1/6 218/1/6 221/1/6
f 221/1/6 218/1/6 222/1/6
f 222/1/6 218/1/6 223/1/6
f 223/1/6 218/1/6 224/1/6
f 220/2/6 221/2/6 225/2/6
f 221/1/6 222/1/6 226/1/6
f 225/2/6 221/2/6 226/2/6
f 226/1/6 222/1/6 227/1/6
f 227/1/6 222/1/6 228/1/6
f 222/2/6 223/2/6 229/2/6
f 228/1/6 222/1/6 229/1/6
f 229/2/6 223/2/6 230/2/6
f 226/3/6 227/3/6 231/3/6
f 227/1/6 228/1/6 232/1/6
f 231/3/6 227/3/6 232/3/6
f 232/1/6 228/1/6 233/1/6
f 233/1/6 228/1/6 234/1/6
f 228/3/6 229/3/6 235/3/6
f 234/1/6 228/1/6 235/1/6
f 235/3/6 229/3/6 236/3/6
f 232/2/6 233/2/6 237/2/6
f 233/1/6 234/1/6 238/1/6
f 237/2/6 233/2/6 238/2/6
f 234/2/6 235/2/6 239/2/6
f 238/1/6 234/1/6 239/1/6
f 239/2/6 235/2/6 240/2/6
f 238/1/6 239/1/6 241/1/6
f 241/1/6 239/1/6 242/1/6
