# MagicaVoxel @ Ephtracy

# group
o 

# material
mtllib stone_2.mtl
usemtl palette

# normals
vn -1 0 0
vn 1 0 0
vn 0 0 1
vn 0 0 -1
vn 0 -1 0
vn 0 1 0

# texcoords
vt 0.798828 0.5
vt 0.958984 0.5
vt 0.962891 0.5

# verts
v -0.8 0 0.8
v -0.8 0 0.6
v -0.8 0 0.5
v -0.8 0 0.4
v -0.8 0 0
v -0.8 0 -0.1
v -0.8 0 -0.2
v -0.8 0 -0.8
v -0.8 0.3 -0.2
v -0.8 0.3 -0.6
v -0.8 0.4 -0.2
v -0.8 0.4 -0.6
v -0.8 0.6 0.8
v -0.8 0.6 0.6
v -0.8 0.6 0.5
v -0.8 0.6 0.4
v -0.8 0.6 0
v -0.8 0.6 -0.1
v -0.8 0.6 -0.2
v -0.8 0.6 -0.8
v -0.8 0.7 0.8
v -0.8 0.7 0.3
v -0.8 0.7 0.2
v -0.8 0.7 0.1
v -0.8 0.7 -0.8
v -0.8 1.3 0.8
v -0.8 1.3 0.3
v -0.8 1.3 0.2
v -0.8 1.3 0.1
v -0.8 1.3 -0.8
v -0.8 1.4 0.8
v -0.8 1.4 0.6
v -0.8 1.4 0.5
v -0.8 1.4 0.4
v -0.8 1.4 0
v -0.8 1.4 -0.1
v -0.8 1.4 -0.2
v -0.8 1.4 -0.8
v -0.8 1.6 0.8
v -0.8 1.6 0.6
v -0.8 1.6 0.5
v -0.8 1.6 0.4
v -0.8 1.6 0
v -0.8 1.6 -0.1
v -0.8 1.6 -0.2
v -0.8 1.6 -0.8
v 0.8 0 0.8
v 0.8 0 0.2
v 0.8 0 0.1
v 0.8 0 0
v 0.8 0 -0.4
v 0.8 0 -0.5
v 0.8 0 -0.6
v 0.8 0 -0.8
v 0.8 0.3 0.6
v 0.8 0.3 0.2
v 0.8 0.4 0.6
v 0.8 0.4 0.2
v 0.8 0.6 0.8
v 0.8 0.6 0.2
v 0.8 0.6 0.1
v 0.8 0.6 0
v 0.8 0.6 -0.4
v 0.8 0.6 -0.5
v 0.8 0.6 -0.6
v 0.8 0.6 -0.8
v 0.8 0.7 0.8
v 0.8 0.7 -0.1
v 0.8 0.7 -0.2
v 0.8 0.7 -0.3
v 0.8 0.7 -0.8
v 0.8 1.3 0.8
v 0.8 1.3 -0.1
v 0.8 1.3 -0.2
v 0.8 1.3 -0.3
v 0.8 1.3 -0.8
v 0.8 1.4 0.8
v 0.8 1.4 0.2
v 0.8 1.4 0.1
v 0.8 1.4 0
v 0.8 1.4 -0.4
v 0.8 1.4 -0.5
v 0.8 1.4 -0.6
v 0.8 1.4 -0.8
v 0.8 1.6 0.8
v 0.8 1.6 0.2
v 0.8 1.6 0.1
v 0.8 1.6 0
v 0.8 1.6 -0.4
v 0.8 1.6 -0.5
v 0.8 1.6 -0.6
v 0.8 1.6 -0.8
v -0.8 0 0.8
v -0.8 0.6 0.8
v -0.8 0.7 0.8
v -0.8 1.3 0.8
v -0.8 1.4 0.8
v -0.8 1.6 0.8
v -0.6 0.3 0.8
v -0.6 0.4 0.8
v -0.2 0 0.8
v -0.2 0.3 0.8
v -0.2 0.4 0.8
v -0.2 0.6 0.8
v -0.2 1.4 0.8
v -0.2 1.6 0.8
v -0.1 0 0.8
v -0.1 0.6 0.8
v -0.1 1.4 0.8
v -0.1 1.6 0.8
v 0 0 0.8
v 0 0.6 0.8
v 0 1.4 0.8
v 0 1.6 0.8
v 0.1 0.7 0.8
v 0.1 1.3 0.8
v 0.2 0.7 0.8
v 0.2 1.3 0.8
v 0.3 0.7 0.8
v 0.3 1.3 0.8
v 0.4 0 0.8
v 0.4 0.6 0.8
v 0.4 1.4 0.8
v 0.4 1.6 0.8
v 0.5 0 0.8
v 0.5 0.6 0.8
v 0.5 1.4 0.8
v 0.5 1.6 0.8
v 0.6 0 0.8
v 0.6 0.6 0.8
v 0.6 1.4 0.8
v 0.6 1.6 0.8
v 0.8 0 0.8
v 0.8 0.6 0.8
v 0.8 0.7 0.8
v 0.8 1.3 0.8
v 0.8 1.4 0.8
v 0.8 1.6 0.8
v -0.8 0 -0.8
v -0.8 0.6 -0.8
v -0.8 0.7 -0.8
v -0.8 1.3 -0.8
v -0.8 1.4 -0.8
v -0.8 1.6 -0.8
v -0.6 0 -0.8
v -0.6 0.6 -0.8
v -0.6 1.4 -0.8
v -0.6 1.6 -0.8
v -0.5 0 -0.8
v -0.5 0.6 -0.8
v -0.5 1.4 -0.8
v -0.5 1.6 -0.8
v -0.4 0 -0.8
v -0.4 0.6 -0.8
v -0.4 1.4 -0.8
v -0.4 1.6 -0.8
v -0.3 0.7 -0.8
v -0.3 1.3 -0.8
v -0.2 0.7 -0.8
v -0.2 1.3 -0.8
v -0.1 0.7 -0.8
v -0.1 1.3 -0.8
v 0 0 -0.8
v 0 0.6 -0.8
v 0 1.4 -0.8
v 0 1.6 -0.8
v 0.1 0 -0.8
v 0.1 0.6 -0.8
v 0.1 1.4 -0.8
v 0.1 1.6 -0.8
v 0.2 0 -0.8
v 0.2 0.3 -0.8
v 0.2 0.4 -0.8
v 0.2 0.6 -0.8
v 0.2 1.4 -0.8
v 0.2 1.6 -0.8
v 0.6 0.3 -0.8
v 0.6 0.4 -0.8
v 0.8 0 -0.8
v 0.8 0.6 -0.8
v 0.8 0.7 -0.8
v 0.8 1.3 -0.8
v 0.8 1.4 -0.8
v 0.8 1.6 -0.8
v -0.8 0 0.8
v -0.2 0 0.8
v -0.1 0 0.8
v 0 0 0.8
v 0.4 0 0.8
v 0.5 0 0.8
v 0.6 0 0.8
v 0.8 0 0.8
v -0.2 0 0.7
v -0.1 0 0.7
v 0 0 0.7
v 0.4 0 0.7
v 0.5 0 0.7
v 0.6 0 0.7
v -0.8 0 0.6
v -0.7 0 0.6
v -0.8 0 0.5
v -0.7 0 0.5
v -0.8 0 0.4
v -0.7 0 0.4
v 0.7 0 0.2
v 0.8 0 0.2
v 0.7 0 0.1
v 0.8 0 0.1
v -0.8 0 0
v -0.7 0 0
v 0.7 0 0
v 0.8 0 0
v -0.8 0 -0.1
v -0.7 0 -0.1
v -0.8 0 -0.2
v -0.7 0 -0.2
v 0.7 0 -0.4
v 0.8 0 -0.4
v 0.7 0 -0.5
v 0.8 0 -0.5
v 0.7 0 -0.6
v 0.8 0 -0.6
v -0.6 0 -0.7
v -0.5 0 -0.7
v -0.4 0 -0.7
v 0 0 -0.7
v 0.1 0 -0.7
v 0.2 0 -0.7
v -0.8 0 -0.8
v -0.6 0 -0.8
v -0.5 0 -0.8
v -0.4 0 -0.8
v 0 0 -0.8
v 0.1 0 -0.8
v 0.2 0 -0.8
v 0.8 0 -0.8
v -0.8 1.6 0.8
v -0.2 1.6 0.8
v -0.1 1.6 0.8
v 0 1.6 0.8
v 0.4 1.6 0.8
v 0.5 1.6 0.8
v 0.6 1.6 0.8
v 0.8 1.6 0.8
v -0.2 1.6 0.7
v -0.1 1.6 0.7
v 0 1.6 0.7
v 0.4 1.6 0.7
v 0.5 1.6 0.7
v 0.6 1.6 0.7
v -0.8 1.6 0.6
v -0.7 1.6 0.6
v -0.8 1.6 0.5
v -0.7 1.6 0.5
v -0.8 1.6 0.4
v -0.7 1.6 0.4
v 0.7 1.6 0.2
v 0.8 1.6 0.2
v 0.7 1.6 0.1
v 0.8 1.6 0.1
v -0.8 1.6 0
v -0.7 1.6 0
v 0.7 1.6 0
v 0.8 1.6 0
v -0.8 1.6 -0.1
v -0.7 1.6 -0.1
v -0.8 1.6 -0.2
v -0.7 1.6 -0.2
v 0.7 1.6 -0.4
v 0.8 1.6 -0.4
v 0.7 1.6 -0.5
v 0.8 1.6 -0.5
v 0.7 1.6 -0.6
v 0.8 1.6 -0.6
v -0.6 1.6 -0.7
v -0.5 1.6 -0.7
v -0.4 1.6 -0.7
v 0 1.6 -0.7
v 0.1 1.6 -0.7
v 0.2 1.6 -0.7
v -0.8 1.6 -0.8
v -0.6 1.6 -0.8
v -0.5 1.6 -0.8
v -0.4 1.6 -0.8
v 0 1.6 -0.8
v 0.1 1.6 -0.8
v 0.2 1.6 -0.8
v 0.8 1.6 -0.8

# faces
f 9/2/1 7/2/1 6/2/1
f 9/3/1 8/3/1 7/3/1
f 10/3/1 8/3/1 9/3/1
f 11/2/1 9/2/1 6/2/1
f 11/2/1 10/2/1 9/2/1
f 12/3/1 8/3/1 10/3/1
f 12/2/1 10/2/1 11/2/1
f 13/3/1 2/3/1 1/3/1
f 14/1/1 3/1/1 2/1/1
f 14/3/1 2/3/1 13/3/1
f 15/2/1 4/2/1 3/2/1
f 15/1/1 3/1/1 14/1/1
f 16/3/1 5/3/1 4/3/1
f 16/2/1 4/2/1 15/2/1
f 17/1/1 6/1/1 5/1/1
f 17/3/1 5/3/1 16/3/1
f 18/2/1 11/2/1 6/2/1
f 18/1/1 6/1/1 17/1/1
f 19/3/1 12/3/1 11/3/1
f 19/2/1 11/2/1 18/2/1
f 20/3/1 8/3/1 12/3/1
f 20/3/1 12/3/1 19/3/1
f 21/2/1 19/2/1 18/2/1
f 21/2/1 14/2/1 13/2/1
f 21/2/1 20/2/1 19/2/1
f 21/2/1 18/2/1 17/2/1
f 21/2/1 17/2/1 16/2/1
f 21/2/1 16/2/1 15/2/1
f 21/2/1 15/2/1 14/2/1
f 22/2/1 20/2/1 21/2/1
f 23/2/1 20/2/1 22/2/1
f 24/2/1 20/2/1 23/2/1
f 25/2/1 20/2/1 24/2/1
f 26/3/1 22/3/1 21/3/1
f 27/1/1 23/1/1 22/1/1
f 27/3/1 22/3/1 26/3/1
f 28/2/1 24/2/1 23/2/1
f 28/1/1 23/1/1 27/1/1
f 29/3/1 25/3/1 24/3/1
f 29/2/1 24/2/1 28/2/1
f 30/3/1 25/3/1 29/3/1
f 31/2/1 27/2/1 26/2/1
f 31/2/1 28/2/1 27/2/1
f 31/2/1 30/2/1 29/2/1
f 31/2/1 29/2/1 28/2/1
f 32/2/1 30/2/1 31/2/1
f 33/2/1 30/2/1 32/2/1
f 34/2/1 30/2/1 33/2/1
f 35/2/1 30/2/1 34/2/1
f 36/2/1 30/2/1 35/2/1
f 37/2/1 30/2/1 36/2/1
f 38/2/1 30/2/1 37/2/1
f 39/3/1 32/3/1 31/3/1
f 40/1/1 33/1/1 32/1/1
f 40/3/1 32/3/1 39/3/1
f 41/2/1 34/2/1 33/2/1
f 41/1/1 33/1/1 40/1/1
f 42/3/1 35/3/1 34/3/1
f 42/2/1 34/2/1 41/2/1
f 43/1/1 36/1/1 35/1/1
f 43/3/1 35/3/1 42/3/1
f 44/2/1 37/2/1 36/2/1
f 44/1/1 36/1/1 43/1/1
f 45/3/1 38/3/1 37/3/1
f 45/2/1 37/2/1 44/2/1
f 46/3/1 38/3/1 45/3/1
f 47/3/2 48/3/2 55/3/2
f 48/2/2 49/2/2 56/2/2
f 55/3/2 48/3/2 56/3/2
f 47/3/2 55/3/2 57/3/2
f 55/2/2 56/2/2 57/2/2
f 56/2/2 49/2/2 58/2/2
f 57/2/2 56/2/2 58/2/2
f 47/3/2 57/3/2 59/3/2
f 57/3/2 58/3/2 59/3/2
f 58/2/2 49/2/2 60/2/2
f 59/3/2 58/3/2 60/3/2
f 49/1/2 50/1/2 61/1/2
f 60/2/2 49/2/2 61/2/2
f 50/3/2 51/3/2 62/3/2
f 61/1/2 50/1/2 62/1/2
f 51/2/2 52/2/2 63/2/2
f 62/3/2 51/3/2 63/3/2
f 52/1/2 53/1/2 64/1/2
f 63/2/2 52/2/2 64/2/2
f 53/3/2 54/3/2 65/3/2
f 64/1/2 53/1/2 65/1/2
f 65/3/2 54/3/2 66/3/2
f 63/2/2 64/2/2 67/2/2
f 59/2/2 60/2/2 67/2/2
f 65/2/2 66/2/2 67/2/2
f 64/2/2 65/2/2 67/2/2
f 62/2/2 63/2/2 67/2/2
f 61/2/2 62/2/2 67/2/2
f 60/2/2 61/2/2 67/2/2
f 67/2/2 66/2/2 68/2/2
f 68/2/2 66/2/2 69/2/2
f 69/2/2 66/2/2 70/2/2
f 70/2/2 66/2/2 71/2/2
f 67/3/2 68/3/2 72/3/2
f 68/2/2 69/2/2 73/2/2
f 72/3/2 68/3/2 73/3/2
f 69/1/2 70/1/2 74/1/2
f 73/2/2 69/2/2 74/2/2
f 70/3/2 71/3/2 75/3/2
f 74/1/2 70/1/2 75/1/2
f 75/3/2 71/3/2 76/3/2
f 72/2/2 73/2/2 77/2/2
f 73/2/2 74/2/2 77/2/2
f 75/2/2 76/2/2 77/2/2
f 74/2/2 75/2/2 77/2/2
f 77/2/2 76/2/2 78/2/2
f 78/2/2 76/2/2 79/2/2
f 79/2/2 76/2/2 80/2/2
f 80/2/2 76/2/2 81/2/2
f 81/2/2 76/2/2 82/2/2
f 82/2/2 76/2/2 83/2/2
f 83/2/2 76/2/2 84/2/2
f 77/3/2 78/3/2 85/3/2
f 78/2/2 79/2/2 86/2/2
f 85/3/2 78/3/2 86/3/2
f 79/1/2 80/1/2 87/1/2
f 86/2/2 79/2/2 87/2/2
f 80/3/2 81/3/2 88/3/2
f 87/1/2 80/1/2 88/1/2
f 81/2/2 82/2/2 89/2/2
f 88/3/2 81/3/2 89/3/2
f 82/1/2 83/1/2 90/1/2
f 89/2/2 82/2/2 90/2/2
f 83/3/2 84/3/2 91/3/2
f 90/1/2 83/1/2 91/1/2
f 91/3/2 84/3/2 92/3/2
f 99/3/3 94/3/3 93/3/3
f 100/3/3 94/3/3 99/3/3
f 101/3/3 99/3/3 93/3/3
f 102/2/3 100/2/3 99/2/3
f 102/3/3 99/3/3 101/3/3
f 103/3/3 94/3/3 100/3/3
f 103/2/3 100/2/3 102/2/3
f 104/2/3 95/2/3 94/2/3
f 104/3/3 94/3/3 103/3/3
f 105/3/3 98/3/3 97/3/3
f 105/2/3 97/2/3 96/2/3
f 106/3/3 98/3/3 105/3/3
f 107/2/3 103/2/3 102/2/3
f 107/2/3 104/2/3 103/2/3
f 107/2/3 102/2/3 101/2/3
f 108/2/3 95/2/3 104/2/3
f 108/2/3 104/2/3 107/2/3
f 109/2/3 106/2/3 105/2/3
f 109/2/3 105/2/3 96/2/3
f 110/2/3 106/2/3 109/2/3
f 111/1/3 108/1/3 107/1/3
f 112/2/3 95/2/3 108/2/3
f 112/1/3 108/1/3 111/1/3
f 113/2/3 109/2/3 96/2/3
f 113/1/3 110/1/3 109/1/3
f 114/1/3 110/1/3 113/1/3
f 115/3/3 96/3/3 95/3/3
f 115/2/3 95/2/3 112/2/3
f 116/2/3 113/2/3 96/2/3
f 116/3/3 96/3/3 115/3/3
f 117/2/3 115/2/3 112/2/3
f 117/2/3 116/2/3 115/2/3
f 118/2/3 113/2/3 116/2/3
f 118/2/3 116/2/3 117/2/3
f 119/2/3 117/2/3 112/2/3
f 119/1/3 118/1/3 117/1/3
f 120/2/3 113/2/3 118/2/3
f 120/1/3 118/1/3 119/1/3
f 121/3/3 112/3/3 111/3/3
f 122/2/3 119/2/3 112/2/3
f 122/3/3 112/3/3 121/3/3
f 123/3/3 114/3/3 113/3/3
f 123/2/3 113/2/3 120/2/3
f 124/3/3 114/3/3 123/3/3
f 125/2/3 122/2/3 121/2/3
f 126/2/3 119/2/3 122/2/3
f 126/2/3 122/2/3 125/2/3
f 127/2/3 123/2/3 120/2/3
f 127/2/3 124/2/3 123/2/3
f 128/2/3 124/2/3 127/2/3
f 129/1/3 126/1/3 125/1/3
f 130/2/3 119/2/3 126/2/3
f 130/1/3 126/1/3 129/1/3
f 131/2/3 127/2/3 120/2/3
f 131/1/3 128/1/3 127/1/3
f 132/1/3 128/1/3 131/1/3
f 133/3/3 130/3/3 129/3/3
f 134/2/3 119/2/3 130/2/3
f 134/3/3 130/3/3 133/3/3
f 135/3/3 120/3/3 119/3/3
f 135/2/3 119/2/3 134/2/3
f 136/2/3 131/2/3 120/2/3
f 136/3/3 120/3/3 135/3/3
f 137/3/3 132/3/3 131/3/3
f 137/2/3 131/2/3 136/2/3
f 138/3/3 132/3/3 137/3/3
f 139/3/4 140/3/4 145/3/4
f 140/2/4 141/2/4 146/2/4
f 145/3/4 140/3/4 146/3/4
f 143/3/4 144/3/4 147/3/4
f 142/2/4 143/2/4 147/2/4
f 147/3/4 144/3/4 148/3/4
f 145/1/4 146/1/4 149/1/4
f 146/2/4 141/2/4 150/2/4
f 149/1/4 146/1/4 150/1/4
f 142/2/4 147/2/4 151/2/4
f 147/1/4 148/1/4 151/1/4
f 151/1/4 148/1/4 152/1/4
f 149/2/4 150/2/4 153/2/4
f 150/2/4 141/2/4 154/2/4
f 153/2/4 150/2/4 154/2/4
f 142/2/4 151/2/4 155/2/4
f 151/2/4 152/2/4 155/2/4
f 155/2/4 152/2/4 156/2/4
f 141/3/4 142/3/4 157/3/4
f 154/2/4 141/2/4 157/2/4
f 142/2/4 155/2/4 158/2/4
f 157/3/4 142/3/4 158/3/4
f 154/2/4 157/2/4 159/2/4
f 157/1/4 158/1/4 159/1/4
f 158/2/4 155/2/4 160/2/4
f 159/1/4 158/1/4 160/1/4
f 154/2/4 159/2/4 161/2/4
f 159/2/4 160/2/4 161/2/4
f 160/2/4 155/2/4 162/2/4
f 161/2/4 160/2/4 162/2/4
f 153/3/4 154/3/4 163/3/4
f 154/2/4 161/2/4 164/2/4
f 163/3/4 154/3/4 164/3/4
f 155/3/4 156/3/4 165/3/4
f 162/2/4 155/2/4 165/2/4
f 165/3/4 156/3/4 166/3/4
f 163/1/4 164/1/4 167/1/4
f 164/2/4 161/2/4 168/2/4
f 167/1/4 164/1/4 168/1/4
f 162/2/4 165/2/4 169/2/4
f 165/1/4 166/1/4 169/1/4
f 169/1/4 166/1/4 170/1/4
f 167/2/4 168/2/4 171/2/4
f 171/2/4 168/2/4 172/2/4
f 172/2/4 168/2/4 173/2/4
f 168/2/4 161/2/4 174/2/4
f 173/2/4 168/2/4 174/2/4
f 162/2/4 169/2/4 175/2/4
f 169/2/4 170/2/4 175/2/4
f 175/2/4 170/2/4 176/2/4
f 172/2/4 173/2/4 177/2/4
f 171/3/4 172/3/4 177/3/4
f 173/3/4 174/3/4 178/3/4
f 177/2/4 173/2/4 178/2/4
f 171/3/4 177/3/4 179/3/4
f 177/3/4 178/3/4 179/3/4
f 174/2/4 161/2/4 180/2/4
f 179/3/4 178/3/4 180/3/4
f 178/3/4 174/3/4 180/3/4
f 161/3/4 162/3/4 181/3/4
f 180/2/4 161/2/4 181/2/4
f 162/2/4 175/2/4 182/2/4
f 181/3/4 162/3/4 182/3/4
f 175/3/4 176/3/4 183/3/4
f 182/2/4 175/2/4 183/2/4
f 183/3/4 176/3/4 184/3/4
f 193/3/5 186/3/5 185/3/5
f 193/2/5 187/2/5 186/2/5
f 194/1/5 188/1/5 187/1/5
f 194/2/5 187/2/5 193/2/5
f 195/3/5 189/3/5 188/3/5
f 195/1/5 188/1/5 194/1/5
f 196/2/5 190/2/5 189/2/5
f 196/3/5 189/3/5 195/3/5
f 197/1/5 191/1/5 190/1/5
f 197/2/5 190/2/5 196/2/5
f 198/3/5 192/3/5 191/3/5
f 198/1/5 191/1/5 197/1/5
f 199/3/5 197/3/5 196/3/5
f 199/3/5 196/3/5 195/3/5
f 199/3/5 198/3/5 197/3/5
f 199/3/5 195/3/5 194/3/5
f 199/3/5 194/3/5 193/3/5
f 199/3/5 193/3/5 185/3/5
f 200/3/5 198/3/5 199/3/5
f 201/1/5 200/1/5 199/1/5
f 202/3/5 198/3/5 200/3/5
f 202/1/5 200/1/5 201/1/5
f 203/2/5 202/2/5 201/2/5
f 204/3/5 198/3/5 202/3/5
f 204/2/5 202/2/5 203/2/5
f 205/3/5 192/3/5 198/3/5
f 205/3/5 198/3/5 204/3/5
f 205/3/5 204/3/5 203/3/5
f 206/3/5 192/3/5 205/3/5
f 207/3/5 205/3/5 203/3/5
f 207/2/5 206/2/5 205/2/5
f 208/2/5 206/2/5 207/2/5
f 209/3/5 207/3/5 203/3/5
f 210/3/5 207/3/5 209/3/5
f 211/1/5 208/1/5 207/1/5
f 211/3/5 207/3/5 210/3/5
f 212/1/5 208/1/5 211/1/5
f 213/1/5 210/1/5 209/1/5
f 214/3/5 211/3/5 210/3/5
f 214/1/5 210/1/5 213/1/5
f 214/3/5 212/3/5 211/3/5
f 215/2/5 214/2/5 213/2/5
f 216/3/5 212/3/5 214/3/5
f 216/2/5 214/2/5 215/2/5
f 217/3/5 216/3/5 215/3/5
f 217/3/5 212/3/5 216/3/5
f 218/3/5 212/3/5 217/3/5
f 219/3/5 217/3/5 215/3/5
f 219/2/5 218/2/5 217/2/5
f 220/2/5 218/2/5 219/2/5
f 221/3/5 219/3/5 215/3/5
f 221/1/5 220/1/5 219/1/5
f 222/1/5 220/1/5 221/1/5
f 223/3/5 221/3/5 215/3/5
f 223/3/5 222/3/5 221/3/5
f 224/3/5 222/3/5 223/3/5
f 225/3/5 222/3/5 224/3/5
f 226/3/5 222/3/5 225/3/5
f 227/3/5 222/3/5 226/3/5
f 228/3/5 222/3/5 227/3/5
f 229/3/5 223/3/5 215/3/5
f 230/1/5 224/1/5 223/1/5
f 230/3/5 223/3/5 229/3/5
f 231/2/5 225/2/5 224/2/5
f 231/1/5 224/1/5 230/1/5
f 232/3/5 226/3/5 225/3/5
f 232/2/5 225/2/5 231/2/5
f 233/1/5 227/1/5 226/1/5
f 233/3/5 226/3/5 232/3/5
f 234/2/5 228/2/5 227/2/5
f 234/1/5 227/1/5 233/1/5
f 235/3/5 222/3/5 228/3/5
f 235/2/5 228/2/5 234/2/5
f 236/3/5 222/3/5 235/3/5
f 237/3/6 238/3/6 245/3/6
f 238/2/6 239/2/6 245/2/6
f 239/1/6 240/1/6 246/1/6
f 245/2/6 239/2/6 246/2/6
f 240/3/6 241/3/6 247/3/6
f 246/1/6 240/1/6 247/1/6
f 241/2/6 242/2/6 248/2/6
f 247/3/6 241/3/6 248/3/6
f 242/1/6 243/1/6 249/1/6
f 248/2/6 242/2/6 249/2/6
f 243/3/6 244/3/6 250/3/6
f 249/1/6 243/1/6 250/1/6
f 248/3/6 249/3/6 251/3/6
f 247/3/6 248/3/6 251/3/6
f 249/3/6 250/3/6 251/3/6
f 246/3/6 247/3/6 251/3/6
f 245/3/6 246/3/6 251/3/6
f 237/3/6 245/3/6 251/3/6
f 251/3/6 250/3/6 252/3/6
f 251/1/6 252/1/6 253/1/6
f 252/3/6 250/3/6 254/3/6
f 253/1/6 252/1/6 254/1/6
f 253/2/6 254/2/6 255/2/6
f 254/3/6 250/3/6 256/3/6
f 255/2/6 254/2/6 256/2/6
f 250/3/6 244/3/6 257/3/6
f 256/3/6 250/3/6 257/3/6
f 255/3/6 256/3/6 257/3/6
f 257/3/6 244/3/6 258/3/6
f 255/3/6 257/3/6 259/3/6
f 257/2/6 258/2/6 259/2/6
f 259/2/6 258/2/6 260/2/6
f 255/3/6 259/3/6 261/3/6
f 261/3/6 259/3/6 262/3/6
f 259/1/6 260/1/6 263/1/6
f 262/3/6 259/3/6 263/3/6
f 263/1/6 260/1/6 264/1/6
f 261/1/6 262/1/6 265/1/6
f 262/3/6 263/3/6 266/3/6
f 265/1/6 262/1/6 266/1/6
f 263/3/6 264/3/6 266/3/6
f 265/2/6 266/2/6 267/2/6
f 266/3/6 264/3/6 268/3/6
f 267/2/6 266/2/6 268/2/6
f 267/3/6 268/3/6 269/3/6
f 268/3/6 264/3/6 269/3/6
f 269/3/6 264/3/6 270/3/6
f 267/3/6 269/3/6 271/3/6
f 269/2/6 270/2/6 271/2/6
f 271/2/6 270/2/6 272/2/6
f 267/3/6 271/3/6 273/3/6
f 271/1/6 272/1/6 273/1/6
f 273/1/6 272/1/6 274/1/6
f 267/3/6 273/3/6 275/3/6
f 273/3/6 274/3/6 275/3/6
f 275/3/6 274/3/6 276/3/6
f 276/3/6 274/3/6 277/3/6
f 277/3/6 274/3/6 278/3/6
f 278/3/6 274/3/6 279/3/6
f 279/3/6 274/3/6 280/3/6
f 267/3/6 275/3/6 281/3/6
f 275/1/6 276/1/6 282/1/6
f 281/3/6 275/3/6 282/3/6
f 276/2/6 277/2/6 283/2/6
f 282/1/6 276/1/6 283/1/6
f 277/3/6 278/3/6 284/3/6
f 283/2/6 277/2/6 284/2/6
f 278/1/6 279/1/6 285/1/6
f 284/3/6 278/3/6 285/3/6
f 279/2/6 280/2/6 286/2/6
f 285/1/6 279/1/6 286/1/6
f 280/3/6 274/3/6 287/3/6
f 286/2/6 280/2/6 287/2/6
f 287/3/6 274/3/6 288/3/6
