# MagicaVoxel @ Ephtracy

# group
o 

# material
mtllib untitled.mtl
usemtl palette

# normals
vn -1 0 0
vn 1 0 0
vn 0 0 1
vn 0 0 -1
vn 0 -1 0
vn 0 1 0

# texcoords
vt 0.654297 0.5
vt 0.693359 0.5
vt 0.720703 0.5
vt 0.724609 0.5

# verts
v -0.8 0 0.3
v -0.8 0 -0.3
v -0.8 1.6 0.3
v -0.8 1.6 -0.3
v -0.7 0 0.5
v -0.7 0 0.3
v -0.7 0 -0.3
v -0.7 0 -0.5
v -0.7 1.6 0.5
v -0.7 1.6 0.3
v -0.7 1.6 -0.3
v -0.7 1.6 -0.5
v -0.6 0 0.6
v -0.6 0 0.5
v -0.6 0 -0.5
v -0.6 0 -0.6
v -0.6 1.6 0.6
v -0.6 1.6 0.5
v -0.6 1.6 -0.5
v -0.6 1.6 -0.6
v -0.5 0 0.7
v -0.5 0 0.6
v -0.5 0 -0.6
v -0.5 0 -0.7
v -0.5 1.6 0.7
v -0.5 1.6 0.6
v -0.5 1.6 -0.6
v -0.5 1.6 -0.7
v -0.3 0 0.8
v -0.3 0 0.7
v -0.3 0 -0.7
v -0.3 0 -0.8
v -0.3 1.6 0.8
v -0.3 1.6 0.7
v -0.3 1.6 -0.7
v -0.3 1.6 -0.8
v 0.3 0 0.8
v 0.3 0 0.7
v 0.3 0 -0.7
v 0.3 0 -0.8
v 0.3 1.6 0.8
v 0.3 1.6 0.7
v 0.3 1.6 -0.7
v 0.3 1.6 -0.8
v 0.5 0 0.7
v 0.5 0 0.6
v 0.5 0 -0.6
v 0.5 0 -0.7
v 0.5 1.6 0.7
v 0.5 1.6 0.6
v 0.5 1.6 -0.6
v 0.5 1.6 -0.7
v 0.6 0 0.6
v 0.6 0 0.5
v 0.6 0 -0.5
v 0.6 0 -0.6
v 0.6 1.6 0.6
v 0.6 1.6 0.5
v 0.6 1.6 -0.5
v 0.6 1.6 -0.6
v 0.7 0 0.5
v 0.7 0 0.3
v 0.7 0 -0.3
v 0.7 0 -0.5
v 0.7 1.6 0.5
v 0.7 1.6 0.3
v 0.7 1.6 -0.3
v 0.7 1.6 -0.5
v 0.8 0 0.3
v 0.8 0 -0.3
v 0.8 1.6 0.3
v 0.8 1.6 -0.3
v -0.3 0 0.8
v -0.3 1.6 0.8
v 0.3 0 0.8
v 0.3 1.6 0.8
v -0.5 0 0.7
v -0.5 1.6 0.7
v -0.3 0 0.7
v -0.3 1.6 0.7
v 0.3 0 0.7
v 0.3 1.6 0.7
v 0.5 0 0.7
v 0.5 1.6 0.7
v -0.6 0 0.6
v -0.6 1.6 0.6
v -0.5 0 0.6
v -0.5 1.6 0.6
v 0.5 0 0.6
v 0.5 1.6 0.6
v 0.6 0 0.6
v 0.6 1.6 0.6
v -0.7 0 0.5
v -0.7 1.6 0.5
v -0.6 0 0.5
v -0.6 1.6 0.5
v 0.6 0 0.5
v 0.6 1.6 0.5
v 0.7 0 0.5
v 0.7 1.6 0.5
v -0.8 0 0.3
v -0.8 1.6 0.3
v -0.7 0 0.3
v -0.7 1.6 0.3
v 0.7 0 0.3
v 0.7 1.6 0.3
v 0.8 0 0.3
v 0.8 1.6 0.3
v -0.8 0 -0.3
v -0.8 1.6 -0.3
v -0.7 0 -0.3
v -0.7 1.6 -0.3
v 0.7 0 -0.3
v 0.7 1.6 -0.3
v 0.8 0 -0.3
v 0.8 1.6 -0.3
v -0.7 0 -0.5
v -0.7 1.6 -0.5
v -0.6 0 -0.5
v -0.6 1.6 -0.5
v 0.6 0 -0.5
v 0.6 1.6 -0.5
v 0.7 0 -0.5
v 0.7 1.6 -0.5
v -0.6 0 -0.6
v -0.6 1.6 -0.6
v -0.5 0 -0.6
v -0.5 1.6 -0.6
v 0.5 0 -0.6
v 0.5 1.6 -0.6
v 0.6 0 -0.6
v 0.6 1.6 -0.6
v -0.5 0 -0.7
v -0.5 1.6 -0.7
v -0.3 0 -0.7
v -0.3 1.6 -0.7
v 0.3 0 -0.7
v 0.3 1.6 -0.7
v 0.5 0 -0.7
v 0.5 1.6 -0.7
v -0.3 0 -0.8
v -0.3 1.6 -0.8
v 0.3 0 -0.8
v 0.3 1.6 -0.8
v -0.3 0 0.8
v 0.3 0 0.8
v -0.5 0 0.7
v -0.3 0 0.7
v 0.3 0 0.7
v 0.5 0 0.7
v -0.6 0 0.6
v -0.5 0 0.6
v -0.3 0 0.6
v 0.3 0 0.6
v 0.5 0 0.6
v 0.6 0 0.6
v -0.7 0 0.5
v -0.6 0 0.5
v -0.5 0 0.5
v 0.5 0 0.5
v 0.6 0 0.5
v 0.7 0 0.5
v -0.8 0 0.3
v -0.7 0 0.3
v -0.6 0 0.3
v 0.6 0 0.3
v 0.7 0 0.3
v 0.8 0 0.3
v -0.8 0 -0.3
v -0.7 0 -0.3
v -0.6 0 -0.3
v 0.6 0 -0.3
v 0.7 0 -0.3
v 0.8 0 -0.3
v -0.7 0 -0.5
v -0.6 0 -0.5
v -0.5 0 -0.5
v 0.5 0 -0.5
v 0.6 0 -0.5
v 0.7 0 -0.5
v -0.6 0 -0.6
v -0.5 0 -0.6
v -0.3 0 -0.6
v 0.3 0 -0.6
v 0.5 0 -0.6
v 0.6 0 -0.6
v -0.5 0 -0.7
v -0.3 0 -0.7
v 0.3 0 -0.7
v 0.5 0 -0.7
v -0.3 0 -0.8
v 0.3 0 -0.8
v -0.3 1.6 0.8
v 0.3 1.6 0.8
v -0.5 1.6 0.7
v -0.3 1.6 0.7
v 0.3 1.6 0.7
v 0.5 1.6 0.7
v -0.6 1.6 0.6
v -0.5 1.6 0.6
v -0.3 1.6 0.6
v 0.3 1.6 0.6
v 0.5 1.6 0.6
v 0.6 1.6 0.6
v -0.7 1.6 0.5
v -0.6 1.6 0.5
v -0.5 1.6 0.5
v 0.5 1.6 0.5
v 0.6 1.6 0.5
v 0.7 1.6 0.5
v -0.8 1.6 0.3
v -0.7 1.6 0.3
v -0.6 1.6 0.3
v 0.6 1.6 0.3
v 0.7 1.6 0.3
v 0.8 1.6 0.3
v -0.8 1.6 -0.3
v -0.7 1.6 -0.3
v -0.6 1.6 -0.3
v 0.6 1.6 -0.3
v 0.7 1.6 -0.3
v 0.8 1.6 -0.3
v -0.7 1.6 -0.5
v -0.6 1.6 -0.5
v -0.5 1.6 -0.5
v 0.5 1.6 -0.5
v 0.6 1.6 -0.5
v 0.7 1.6 -0.5
v -0.6 1.6 -0.6
v -0.5 1.6 -0.6
v -0.3 1.6 -0.6
v 0.3 1.6 -0.6
v 0.5 1.6 -0.6
v 0.6 1.6 -0.6
v -0.5 1.6 -0.7
v -0.3 1.6 -0.7
v 0.3 1.6 -0.7
v 0.5 1.6 -0.7
v -0.3 1.6 -0.8
v 0.3 1.6 -0.8

# faces
f 3/1/1 2/1/1 1/1/1
f 4/1/1 2/1/1 3/1/1
f 9/2/1 6/2/1 5/2/1
f 10/2/1 6/2/1 9/2/1
f 11/2/1 8/2/1 7/2/1
f 12/2/1 8/2/1 11/2/1
f 17/3/1 14/3/1 13/3/1
f 18/3/1 14/3/1 17/3/1
f 19/3/1 16/3/1 15/3/1
f 20/3/1 16/3/1 19/3/1
f 25/2/1 22/2/1 21/2/1
f 26/2/1 22/2/1 25/2/1
f 27/2/1 24/2/1 23/2/1
f 28/2/1 24/2/1 27/2/1
f 33/1/1 30/1/1 29/1/1
f 34/1/1 30/1/1 33/1/1
f 35/1/1 32/1/1 31/1/1
f 36/1/1 32/1/1 35/1/1
f 37/1/2 38/1/2 41/1/2
f 41/1/2 38/1/2 42/1/2
f 39/1/2 40/1/2 43/1/2
f 43/1/2 40/1/2 44/1/2
f 45/2/2 46/2/2 49/2/2
f 49/2/2 46/2/2 50/2/2
f 47/2/2 48/2/2 51/2/2
f 51/2/2 48/2/2 52/2/2
f 53/3/2 54/3/2 57/3/2
f 57/3/2 54/3/2 58/3/2
f 55/3/2 56/3/2 59/3/2
f 59/3/2 56/3/2 60/3/2
f 61/2/2 62/2/2 65/2/2
f 65/2/2 62/2/2 66/2/2
f 63/2/2 64/2/2 67/2/2
f 67/2/2 64/2/2 68/2/2
f 69/1/2 70/1/2 71/1/2
f 71/1/2 70/1/2 72/1/2
f 75/1/3 74/1/3 73/1/3
f 76/1/3 74/1/3 75/1/3
f 79/2/3 78/2/3 77/2/3
f 80/2/3 78/2/3 79/2/3
f 83/2/3 82/2/3 81/2/3
f 84/2/3 82/2/3 83/2/3
f 87/3/3 86/3/3 85/3/3
f 88/3/3 86/3/3 87/3/3
f 91/3/3 90/3/3 89/3/3
f 92/3/3 90/3/3 91/3/3
f 95/2/3 94/2/3 93/2/3
f 96/2/3 94/2/3 95/2/3
f 99/2/3 98/2/3 97/2/3
f 100/2/3 98/2/3 99/2/3
f 103/1/3 102/1/3 101/1/3
f 104/1/3 102/1/3 103/1/3
f 107/1/3 106/1/3 105/1/3
f 108/1/3 106/1/3 107/1/3
f 109/1/4 110/1/4 111/1/4
f 111/1/4 110/1/4 112/1/4
f 113/1/4 114/1/4 115/1/4
f 115/1/4 114/1/4 116/1/4
f 117/2/4 118/2/4 119/2/4
f 119/2/4 118/2/4 120/2/4
f 121/2/4 122/2/4 123/2/4
f 123/2/4 122/2/4 124/2/4
f 125/3/4 126/3/4 127/3/4
f 127/3/4 126/3/4 128/3/4
f 129/3/4 130/3/4 131/3/4
f 131/3/4 130/3/4 132/3/4
f 133/2/4 134/2/4 135/2/4
f 135/2/4 134/2/4 136/2/4
f 137/2/4 138/2/4 139/2/4
f 139/2/4 138/2/4 140/2/4
f 141/1/4 142/1/4 143/1/4
f 143/1/4 142/1/4 144/1/4
f 148/1/5 146/1/5 145/1/5
f 149/1/5 146/1/5 148/1/5
f 152/2/5 148/2/5 147/2/5
f 153/4/5 149/4/5 148/4/5
f 153/2/5 148/2/5 152/2/5
f 154/2/5 150/2/5 149/2/5
f 154/4/5 149/4/5 153/4/5
f 155/2/5 150/2/5 154/2/5
f 158/3/5 152/3/5 151/3/5
f 159/4/5 153/4/5 152/4/5
f 159/4/5 154/4/5 153/4/5
f 159/3/5 152/3/5 158/3/5
f 159/4/5 155/4/5 154/4/5
f 160/3/5 156/3/5 155/3/5
f 160/4/5 155/4/5 159/4/5
f 161/3/5 156/3/5 160/3/5
f 164/2/5 158/2/5 157/2/5
f 165/4/5 159/4/5 158/4/5
f 165/4/5 160/4/5 159/4/5
f 165/2/5 158/2/5 164/2/5
f 165/4/5 161/4/5 160/4/5
f 166/2/5 162/2/5 161/2/5
f 166/4/5 161/4/5 165/4/5
f 167/2/5 162/2/5 166/2/5
f 169/1/5 164/1/5 163/1/5
f 170/4/5 165/4/5 164/4/5
f 170/1/5 164/1/5 169/1/5
f 170/4/5 166/4/5 165/4/5
f 170/4/5 167/4/5 166/4/5
f 171/4/5 167/4/5 170/4/5
f 172/4/5 167/4/5 171/4/5
f 173/1/5 168/1/5 167/1/5
f 173/4/5 167/4/5 172/4/5
f 174/1/5 168/1/5 173/1/5
f 175/2/5 171/2/5 170/2/5
f 176/4/5 172/4/5 171/4/5
f 176/2/5 171/2/5 175/2/5
f 177/4/5 172/4/5 176/4/5
f 178/4/5 172/4/5 177/4/5
f 179/2/5 173/2/5 172/2/5
f 179/4/5 172/4/5 178/4/5
f 180/2/5 173/2/5 179/2/5
f 181/3/5 177/3/5 176/3/5
f 182/4/5 178/4/5 177/4/5
f 182/3/5 177/3/5 181/3/5
f 183/4/5 178/4/5 182/4/5
f 184/4/5 178/4/5 183/4/5
f 185/3/5 179/3/5 178/3/5
f 185/4/5 178/4/5 184/4/5
f 186/3/5 179/3/5 185/3/5
f 187/2/5 183/2/5 182/2/5
f 188/4/5 184/4/5 183/4/5
f 188/2/5 183/2/5 187/2/5
f 189/2/5 185/2/5 184/2/5
f 189/4/5 184/4/5 188/4/5
f 190/2/5 185/2/5 189/2/5
f 191/1/5 189/1/5 188/1/5
f 192/1/5 189/1/5 191/1/5
f 193/1/6 194/1/6 196/1/6
f 196/1/6 194/1/6 197/1/6
f 195/2/6 196/2/6 200/2/6
f 196/4/6 197/4/6 201/4/6
f 200/2/6 196/2/6 201/2/6
f 197/2/6 198/2/6 202/2/6
f 201/4/6 197/4/6 202/4/6
f 202/2/6 198/2/6 203/2/6
f 199/3/6 200/3/6 206/3/6
f 200/4/6 201/4/6 207/4/6
f 201/4/6 202/4/6 207/4/6
f 206/3/6 200/3/6 207/3/6
f 202/4/6 203/4/6 207/4/6
f 203/3/6 204/3/6 208/3/6
f 207/4/6 203/4/6 208/4/6
f 208/3/6 204/3/6 209/3/6
f 205/2/6 206/2/6 212/2/6
f 206/4/6 207/4/6 213/4/6
f 207/4/6 208/4/6 213/4/6
f 212/2/6 206/2/6 213/2/6
f 208/4/6 209/4/6 213/4/6
f 209/2/6 210/2/6 214/2/6
f 213/4/6 209/4/6 214/4/6
f 214/2/6 210/2/6 215/2/6
f 211/1/6 212/1/6 217/1/6
f 212/4/6 213/4/6 218/4/6
f 217/1/6 212/1/6 218/1/6
f 213/4/6 214/4/6 218/4/6
f 214/4/6 215/4/6 218/4/6
f 218/4/6 215/4/6 219/4/6
f 219/4/6 215/4/6 220/4/6
f 215/1/6 216/1/6 221/1/6
f 220/4/6 215/4/6 221/4/6
f 221/1/6 216/1/6 222/1/6
f 218/2/6 219/2/6 223/2/6
f 219/4/6 220/4/6 224/4/6
f 223/2/6 219/2/6 224/2/6
f 224/4/6 220/4/6 225/4/6
f 225/4/6 220/4/6 226/4/6
f 220/2/6 221/2/6 227/2/6
f 226/4/6 220/4/6 227/4/6
f 227/2/6 221/2/6 228/2/6
f 224/3/6 225/3/6 229/3/6
f 225/4/6 226/4/6 230/4/6
f 229/3/6 225/3/6 230/3/6
f 230/4/6 226/4/6 231/4/6
f 231/4/6 226/4/6 232/4/6
f 226/3/6 227/3/6 233/3/6
f 232/4/6 226/4/6 233/4/6
f 233/3/6 227/3/6 234/3/6
f 230/2/6 231/2/6 235/2/6
f 231/4/6 232/4/6 236/4/6
f 235/2/6 231/2/6 236/2/6
f 232/2/6 233/2/6 237/2/6
f 236/4/6 232/4/6 237/4/6
f 237/2/6 233/2/6 238/2/6
f 236/1/6 237/1/6 239/1/6
f 239/1/6 237/1/6 240/1/6
